<svg width="140" height="140" viewBox="0 0 140 140" fill="none" xmlns="http://www.w3.org/2000/svg">
<g clip-path="url(#clip0_80_53)">
<path d="M140 70C140 108.659 108.659 140 70 140C31.3406 140 0 108.659 0 70C0 31.3406 31.3406 0 70 0C108.659 0 140 31.3406 140 70Z" fill="#FFCC4D"/>
<path d="M70 112.778C76.4433 112.778 81.6667 106.684 81.6667 99.1668C81.6667 91.6496 76.4433 85.5557 70 85.5557C63.5567 85.5557 58.3333 91.6496 58.3333 99.1668C58.3333 106.684 63.5567 112.778 70 112.778Z" fill="#664500"/>
<path d="M120.559 42.7777C119.373 42.7777 118.211 42.241 117.444 41.2221C107.178 27.5293 93.8739 27.2299 93.31 27.2221C91.1711 27.1988 89.4445 25.4488 89.4561 23.3138C89.4678 21.171 91.1945 19.4443 93.3333 19.4443C94.0489 19.4443 110.977 19.6388 123.667 36.5554C124.958 38.2743 124.608 40.7127 122.889 41.9999C122.189 42.5249 121.372 42.7777 120.559 42.7777ZM19.4406 42.7777C18.6317 42.7777 17.8111 42.5249 17.1111 41.9999C15.3922 40.7127 15.0461 38.2743 16.3333 36.5554C29.0189 19.6388 45.9511 19.4443 46.6667 19.4443C48.8133 19.4443 50.5556 21.1866 50.5556 23.3332C50.5556 25.476 48.825 27.2143 46.6822 27.2221C46.0795 27.2299 32.8067 27.5566 22.5556 41.2221C21.7933 42.241 20.6228 42.7777 19.4406 42.7777Z" fill="#664500"/>
<path d="M46.6667 70.0001C52.0361 70.0001 56.3889 63.9062 56.3889 56.3889C56.3889 48.8717 52.0361 42.7778 46.6667 42.7778C41.2972 42.7778 36.9444 48.8717 36.9444 56.3889C36.9444 63.9062 41.2972 70.0001 46.6667 70.0001Z" fill="#664500"/>
<path d="M93.3333 70.0001C98.7028 70.0001 103.056 63.9062 103.056 56.3889C103.056 48.8717 98.7028 42.7778 93.3333 42.7778C87.9639 42.7778 83.6111 48.8717 83.6111 56.3889C83.6111 63.9062 87.9639 70.0001 93.3333 70.0001Z" fill="#664500"/>
<g clip-path="url(#clip1_80_53)">
<path d="M40 74C49.9411 74 58 65.9411 58 56C58 46.0589 49.9411 38 40 38C30.0589 38 22 46.0589 22 56C22 65.9411 30.0589 74 40 74Z" fill="#F4900C"/>
<path d="M58 55H49.019C49.207 49.494 50.962 45.705 53.803 44.454C53.358 43.923 52.877 43.427 52.375 42.95C49.545 44.528 47.23 48.223 47.021 54.999H41V38H39V55H32.979C32.771 48.224 30.456 44.529 27.626 42.951C27.124 43.427 26.642 43.923 26.198 44.454C29.039 45.705 30.793 49.494 30.981 55H22V57H30.981C30.793 62.506 29.039 66.295 26.198 67.546C26.643 68.077 27.124 68.573 27.626 69.05C30.457 67.472 32.771 63.777 32.979 57H39V74H41V57H47.021C47.23 63.776 49.544 67.471 52.375 69.05C52.877 68.574 53.359 68.077 53.803 67.546C50.962 66.295 49.208 62.506 49.019 57H58V55Z" fill="#231F20"/>
</g>
<g clip-path="url(#clip2_80_53)">
<path d="M100 74C109.941 74 118 65.9411 118 56C118 46.0589 109.941 38 100 38C90.0589 38 82 46.0589 82 56C82 65.9411 90.0589 74 100 74Z" fill="#F4900C"/>
<path d="M118 55H109.019C109.207 49.494 110.962 45.705 113.803 44.454C113.358 43.923 112.877 43.427 112.375 42.95C109.545 44.528 107.23 48.223 107.021 54.999H101V38H99V55H92.979C92.771 48.224 90.456 44.529 87.626 42.951C87.124 43.427 86.642 43.923 86.198 44.454C89.039 45.705 90.793 49.494 90.981 55H82V57H90.981C90.793 62.506 89.039 66.295 86.198 67.546C86.643 68.077 87.124 68.573 87.626 69.05C90.457 67.472 92.771 63.777 92.979 57H99V74H101V57H107.021C107.23 63.776 109.544 67.471 112.375 69.05C112.877 68.574 113.359 68.077 113.803 67.546C110.962 66.295 109.208 62.506 109.019 57H118V55Z" fill="#231F20"/>
</g>
</g>
<defs>
<clipPath id="clip0_80_53">
<rect width="140" height="140" fill="white"/>
</clipPath>
<clipPath id="clip1_80_53">
<rect width="36" height="36" fill="white" transform="translate(22 38)"/>
</clipPath>
<clipPath id="clip2_80_53">
<rect width="36" height="36" fill="white" transform="translate(82 38)"/>
</clipPath>
</defs>
</svg>
