<svg width="36" height="36" viewBox="0 0 36 36" fill="none" xmlns="http://www.w3.org/2000/svg">
<path d="M28 13C28 24 33 23 33 28C33 28 33 30 31 30H5C3 30 3 28 3 28C3 23 8 24 8 13C8 7.478 12.477 3 18 3C23.523 3 28 7.478 28 13Z" fill="#17408C"/>
<path d="M18 6C19.6569 6 21 4.65685 21 3C21 1.34315 19.6569 0 18 0C16.3431 0 15 1.34315 15 3C15 4.65685 16.3431 6 18 6Z" fill="#17408C"/>
<path d="M18 36C20.209 36 22 34.209 22 32H14C14 34.209 15.791 36 18 36Z" fill="#17408C"/>
<path d="M17 30L16 26L13.5 24L12.5 20.5" stroke="#EF3222" stroke-width="0.65"/>
</svg>
