<svg width="36" height="36" viewBox="0 0 36 36" fill="none" xmlns="http://www.w3.org/2000/svg">
<g clip-path="url(#clip0_105_357)">
<mask id="path-1-inside-1_105_357" fill="white">
<path d="M35 0.300003C34.326 -0.945997 27.596 1.988 25 4C25 4 21 3.002 18 3.002C15 3.002 11 4 11 4C8.404 1.988 1.674 -0.945997 1 0.300003C-1 4 2 13 2 13C1.102 14.796 0.709 16.328 0.377 18.987C0.73 18.89 1.137 18.83 1.642 18.83C6.644 18.83 9.499 26.975 8.994 33.755C12.541 35.401 16.458 36 18 36C19.549 36 23.497 35.395 27.058 33.73C26.561 26.955 29.415 18.83 34.411 18.83C34.891 18.83 35.279 18.888 35.621 18.975C35.29 16.323 34.897 14.793 34 13C34 13 37 4 35 0.300003Z"/>
</mask>
<path d="M35 0.300003C34.326 -0.945997 27.596 1.988 25 4C25 4 21 3.002 18 3.002C15 3.002 11 4 11 4C8.404 1.988 1.674 -0.945997 1 0.300003C-1 4 2 13 2 13C1.102 14.796 0.709 16.328 0.377 18.987C0.73 18.89 1.137 18.83 1.642 18.83C6.644 18.83 9.499 26.975 8.994 33.755C12.541 35.401 16.458 36 18 36C19.549 36 23.497 35.395 27.058 33.73C26.561 26.955 29.415 18.83 34.411 18.83C34.891 18.83 35.279 18.888 35.621 18.975C35.29 16.323 34.897 14.793 34 13C34 13 37 4 35 0.300003Z" fill="#F65C25" stroke="#23508D" stroke-width="2" mask="url(#path-1-inside-1_105_357)"/>
<mask id="path-2-inside-2_105_357" fill="white">
<path d="M18 15C21 15 21 15.5 21 16.5C21 17.5 19.5 19.5 18 19.5C16.5 19.5 15 17.5 15 16.5C15 15.5 14.999 15 18 15Z"/>
</mask>
<path d="M18 15C21 15 21 15.5 21 16.5C21 17.5 19.5 19.5 18 19.5C16.5 19.5 15 17.5 15 16.5C15 15.5 14.999 15 18 15Z" fill="white" stroke="#23508D" stroke-width="2" mask="url(#path-2-inside-2_105_357)"/>
<path d="M1.99997 3.00003C2.44697 1.65803 7.63997 4.00003 8.63997 5.00003C8.63997 5.00003 3.99997 8.00003 2.99997 11C2.99997 11 0.999971 6.00003 1.99997 3.00003ZM34 3.00003C33.553 1.65803 28.36 4.00003 27.36 5.00003C27.36 5.00003 32 8.00003 33 11C33 11 35 6.00003 34 3.00003Z" fill="#23508D"/>
<path d="M4.93408 5.603C4.93408 4.189 11.0001 7 10.0001 8C9.00008 9 8.00008 9.603 7.00008 10.603C6.00008 11.603 4.93408 6.603 4.93408 5.603ZM31.0661 5.603C31.0661 4.189 25.0001 7 26.0001 8C27.0001 9 28.0001 9.603 29.0001 10.603C30.0001 11.603 31.0661 6.603 31.0661 5.603Z" fill="#23508D"/>
<path d="M11.0391 21.5021C9.23807 21.3621 7.65007 21.4861 6.27707 21.7361C6.47507 22.0281 6.66307 22.3361 6.84207 22.6601C8.05007 22.4671 9.42807 22.3811 10.9621 22.4981C11.2421 22.5391 11.4781 22.3141 11.4991 22.0381C11.5191 21.7631 11.3141 21.5221 11.0391 21.5021ZM9.71807 19.3591C5.71607 18.1091 2.32207 18.5871 0.976074 18.8711C1.18207 18.8471 1.39707 18.8291 1.64207 18.8291C2.53107 18.8291 3.35207 19.0891 4.09907 19.5511C5.58107 19.5301 7.42507 19.6911 9.42007 20.3151C9.46907 20.3311 9.52007 20.3371 9.56907 20.3371C9.78207 20.3371 9.97907 20.2001 10.0461 19.9861C10.1291 19.7231 9.98207 19.4421 9.71807 19.3591ZM29.7711 21.7451C28.3871 21.4891 26.7831 21.3611 24.9621 21.5021C24.6871 21.5221 24.4811 21.7631 24.5021 22.0381C24.5231 22.3131 24.7591 22.5391 25.0391 22.4981C26.5931 22.3801 27.9891 22.4681 29.2091 22.6671C29.3861 22.3441 29.5731 22.0361 29.7711 21.7451ZM31.9541 19.5511C32.7011 19.0891 33.5221 18.8291 34.4121 18.8291C34.6281 18.8291 34.8151 18.8471 35.0011 18.8661C33.6401 18.5821 30.2621 18.1161 26.2831 19.3591C26.0191 19.4421 25.8721 19.7221 25.9551 19.9861C26.0221 20.2001 26.2191 20.3371 26.4321 20.3371C26.4811 20.3371 26.5321 20.3301 26.5811 20.3151C28.5991 19.6831 30.4641 19.5251 31.9541 19.5511Z" fill="#23508D"/>
<path d="M18 21C15.791 21 14 22.791 14 25V31C14 33.209 15.791 35 18 35C20.209 35 22 33.209 22 31V25C22 22.791 20.209 21 18 21Z" fill="#23508D"/>
<mask id="path-7-inside-3_105_357" fill="white">
<path d="M7.34706 10.665C6.40106 13.841 7.45406 16.958 9.69906 17.627C11.9451 18.297 14.5331 16.265 15.4781 13.089C16.4251 9.914 15.3721 6.796 13.1281 6.127C10.8831 5.458 8.29406 7.491 7.34706 10.665ZM28.6521 10.665C29.5981 13.841 28.5451 16.958 26.3001 17.627C24.0541 18.297 21.4661 16.265 20.5211 13.089C19.5751 9.914 20.6281 6.796 22.8721 6.127C25.1171 5.458 27.7051 7.491 28.6521 10.665Z"/>
</mask>
<path d="M7.34706 10.665C6.40106 13.841 7.45406 16.958 9.69906 17.627C11.9451 18.297 14.5331 16.265 15.4781 13.089C16.4251 9.914 15.3721 6.796 13.1281 6.127C10.8831 5.458 8.29406 7.491 7.34706 10.665ZM28.6521 10.665C29.5981 13.841 28.5451 16.958 26.3001 17.627C24.0541 18.297 21.4661 16.265 20.5211 13.089C19.5751 9.914 20.6281 6.796 22.8721 6.127C25.1171 5.458 27.7051 7.491 28.6521 10.665Z" fill="#F5F8FA" stroke="#23508D" stroke-width="2" mask="url(#path-7-inside-3_105_357)"/>
<mask id="path-8-inside-4_105_357" fill="white">
<path d="M35.7529 19.183C35.4389 19.066 35.0619 19 34.5959 19C29.9549 19 27.5309 29.002 28.7229 36H35.1829C33.2769 28.955 36.8389 21.911 35.7529 19.183ZM1.4039 19C0.939902 19 0.563901 19.066 0.250902 19.183L0.249902 19.197C-0.832098 21.94 2.7219 29.006 0.817902 36H7.2779C8.4679 29.04 6.0429 19 1.4039 19Z"/>
</mask>
<path d="M35.7529 19.183C35.4389 19.066 35.0619 19 34.5959 19C29.9549 19 27.5309 29.002 28.7229 36H35.1829C33.2769 28.955 36.8389 21.911 35.7529 19.183ZM1.4039 19C0.939902 19 0.563901 19.066 0.250902 19.183L0.249902 19.197C-0.832098 21.94 2.7219 29.006 0.817902 36H7.2779C8.4679 29.04 6.0429 19 1.4039 19Z" fill="#F65C25" stroke="#23508D" stroke-width="2" mask="url(#path-8-inside-4_105_357)"/>
</g>
<defs>
<clipPath id="clip0_105_357">
<rect width="36" height="36" fill="white"/>
</clipPath>
</defs>
</svg>
