<svg width="36" height="36" viewBox="0 0 36 36" fill="none" xmlns="http://www.w3.org/2000/svg">
<path d="M14.1741 17.075L6.75008 7.59399L3.02808 17.075H14.1741Z" fill="#B4BCC0"/>
<path d="M17.938 5.53406L11.375 17.9231H24.5L17.938 5.53406Z" fill="#B4BCC0"/>
<path d="M21.8259 17.075L29.2499 7.59399L32.9719 17.075H21.8259Z" fill="#B4BCC0"/>
<path d="M28.669 15.19L23.887 3.52297L18.007 15.191L18 15.194L17.993 15.19L12.113 3.52197L7.33103 15.19C4.19703 10.833 1.28003 8.04197 1.28003 8.04197C1.28003 8.04197 3.00003 20.75 3.00003 33H33C33 20.75 34.72 8.04197 34.72 8.04197C34.72 8.04197 31.803 10.833 28.669 15.19Z" fill="#B4BCC0"/>
<path d="M17.957 25.688C19.9939 25.688 21.645 24.0368 21.645 22C21.645 19.9632 19.9939 18.312 17.957 18.312C15.9202 18.312 14.269 19.9632 14.269 22C14.269 24.0368 15.9202 25.688 17.957 25.688Z" fill="#361F78"/>
<path d="M26.463 24.412C27.7951 24.412 28.875 23.3321 28.875 22C28.875 20.6679 27.7951 19.588 26.463 19.588C25.1309 19.588 24.051 20.6679 24.051 22C24.051 23.3321 25.1309 24.412 26.463 24.412Z" fill="#361F78"/>
<path d="M32.852 23.986C33.9488 23.986 34.838 23.0969 34.838 22C34.838 20.9032 33.9488 20.014 32.852 20.014C31.7551 20.014 30.866 20.9032 30.866 22C30.866 23.0969 31.7551 23.986 32.852 23.986Z" fill="#361F78"/>
<path d="M9.45009 24.412C10.7822 24.412 11.8621 23.3321 11.8621 22C11.8621 20.6679 10.7822 19.588 9.45009 19.588C8.11797 19.588 7.03809 20.6679 7.03809 22C7.03809 23.3321 8.11797 24.412 9.45009 24.412Z" fill="#361F78"/>
<path d="M3.06095 23.986C4.15779 23.986 5.04695 23.0969 5.04695 22C5.04695 20.9032 4.15779 20.014 3.06095 20.014C1.96411 20.014 1.07495 20.9032 1.07495 22C1.07495 23.0969 1.96411 23.986 3.06095 23.986Z" fill="#361F78"/>
<path d="M33 34H3C2.448 34 2 33.553 2 33C2 32.447 2.448 32 3 32H33C33.553 32 34 32.447 34 33C34 33.553 33.553 34 33 34ZM33 30.514H3C2.448 30.514 2 30.067 2 29.514C2 28.961 2.448 28.514 3 28.514H33C33.553 28.514 34 28.961 34 29.514C34 30.067 33.553 30.514 33 30.514Z" fill="#361F78"/>
<path d="M1.44704 9.44901C2.2241 9.44901 2.85404 8.81907 2.85404 8.04201C2.85404 7.26494 2.2241 6.63501 1.44704 6.63501C0.669975 6.63501 0.0400391 7.26494 0.0400391 8.04201C0.0400391 8.81907 0.669975 9.44901 1.44704 9.44901Z" fill="#361F78"/>
<path d="M6.75011 8.78598C7.40843 8.78598 7.94211 8.2523 7.94211 7.59398C7.94211 6.93565 7.40843 6.40198 6.75011 6.40198C6.09178 6.40198 5.55811 6.93565 5.55811 7.59398C5.55811 8.2523 6.09178 8.78598 6.75011 8.78598Z" fill="#361F78"/>
<path d="M12.1131 5.30701C13.0984 5.30701 13.8971 4.50829 13.8971 3.52301C13.8971 2.53774 13.0984 1.73901 12.1131 1.73901C11.1278 1.73901 10.3291 2.53774 10.3291 3.52301C10.3291 4.50829 11.1278 5.30701 12.1131 5.30701Z" fill="#361F78"/>
<path d="M34.553 9.44901C35.3301 9.44901 35.96 8.81907 35.96 8.04201C35.96 7.26494 35.3301 6.63501 34.553 6.63501C33.7759 6.63501 33.146 7.26494 33.146 8.04201C33.146 8.81907 33.7759 9.44901 34.553 9.44901Z" fill="#361F78"/>
<path d="M29.2501 8.78598C29.9084 8.78598 30.4421 8.2523 30.4421 7.59398C30.4421 6.93565 29.9084 6.40198 29.2501 6.40198C28.5918 6.40198 28.0581 6.93565 28.0581 7.59398C28.0581 8.2523 28.5918 8.78598 29.2501 8.78598Z" fill="#361F78"/>
<path d="M23.887 5.30701C24.8723 5.30701 25.671 4.50829 25.671 3.52301C25.671 2.53774 24.8723 1.73901 23.887 1.73901C22.9017 1.73901 22.103 2.53774 22.103 3.52301C22.103 4.50829 22.9017 5.30701 23.887 5.30701Z" fill="#361F78"/>
<path d="M17.9381 7.318C18.9233 7.318 19.7221 6.51928 19.7221 5.534C19.7221 4.54872 18.9233 3.75 17.9381 3.75C16.9528 3.75 16.1541 4.54872 16.1541 5.534C16.1541 6.51928 16.9528 7.318 17.9381 7.318Z" fill="#361F78"/>
</svg>
