<svg width="36" height="38" viewBox="0 0 36 38" fill="none" xmlns="http://www.w3.org/2000/svg">
<g clip-path="url(#clip0_98_233)">
<mask id="path-1-inside-1_98_233" fill="white">
<path d="M10.5821 18C12.6571 19.244 13.3221 21.559 12.9981 24H17.8351C17.9381 23.351 18.0001 22.684 18.0001 22C18.0001 15.925 12.9991 10.269 7.73006 10.269C-0.748936 10.269 -2.13594 19.312 3.16306 22C2.10406 17 7.28506 16.025 10.5821 18ZM25.4571 18C23.3821 19.244 22.7171 21.559 23.0411 24H18.2041C18.1001 23.351 18.0391 22.684 18.0391 22C18.0391 15.925 23.0401 10.269 28.3081 10.269C36.7871 10.269 38.1741 19.312 32.8751 22C33.9361 17 28.7541 16.025 25.4571 18ZM29.7911 26.647C29.3151 28.014 28.0281 29 26.5001 29C24.7381 29 23.2951 27.693 23.0511 26H20.4361C20.1651 26.614 20.0001 27.285 20.0001 28C20.0001 30.762 22.2381 33 25.0001 33C27.7621 33 30.0001 30.762 30.0001 28C30.0001 27.528 29.9141 27.08 29.7911 26.647ZM12.9491 26C12.7051 27.693 11.2611 29 9.50006 29C7.97206 29 6.68606 28.014 6.20906 26.647C6.08606 27.08 6.00006 27.528 6.00006 28C6.00006 30.762 8.23806 33 11.0001 33C13.7621 33 16.0001 30.762 16.0001 28C16.0001 27.285 15.8351 26.614 15.5641 26H12.9491Z"/>
</mask>
<path d="M10.5821 18C12.6571 19.244 13.3221 21.559 12.9981 24H17.8351C17.9381 23.351 18.0001 22.684 18.0001 22C18.0001 15.925 12.9991 10.269 7.73006 10.269C-0.748936 10.269 -2.13594 19.312 3.16306 22C2.10406 17 7.28506 16.025 10.5821 18ZM25.4571 18C23.3821 19.244 22.7171 21.559 23.0411 24H18.2041C18.1001 23.351 18.0391 22.684 18.0391 22C18.0391 15.925 23.0401 10.269 28.3081 10.269C36.7871 10.269 38.1741 19.312 32.8751 22C33.9361 17 28.7541 16.025 25.4571 18ZM29.7911 26.647C29.3151 28.014 28.0281 29 26.5001 29C24.7381 29 23.2951 27.693 23.0511 26H20.4361C20.1651 26.614 20.0001 27.285 20.0001 28C20.0001 30.762 22.2381 33 25.0001 33C27.7621 33 30.0001 30.762 30.0001 28C30.0001 27.528 29.9141 27.08 29.7911 26.647ZM12.9491 26C12.7051 27.693 11.2611 29 9.50006 29C7.97206 29 6.68606 28.014 6.20906 26.647C6.08606 27.08 6.00006 27.528 6.00006 28C6.00006 30.762 8.23806 33 11.0001 33C13.7621 33 16.0001 30.762 16.0001 28C16.0001 27.285 15.8351 26.614 15.5641 26H12.9491Z" fill="#1C1264" stroke="#0690C3" stroke-width="2" mask="url(#path-1-inside-1_98_233)"/>
<mask id="path-2-inside-2_98_233" fill="white">
<path d="M13 10.227C13 3.951 18 0 18 0C18 0 23 3.951 23 10.227C23 16.503 20.762 25 18 25C15.238 25 13 16.503 13 10.227Z"/>
</mask>
<path d="M13 10.227C13 3.951 18 0 18 0C18 0 23 3.951 23 10.227C23 16.503 20.762 25 18 25C15.238 25 13 16.503 13 10.227Z" fill="#1C1264" stroke="#0690C3" stroke-width="2" mask="url(#path-2-inside-2_98_233)"/>
<path d="M14 30C14 26.687 16.344 24 18 24C19.656 24 22 26.687 22 30C22 33.313 18 36 18 36C18 36 14 33.313 14 30Z" fill="#1C1264"/>
<path d="M25 24.5C25 26.433 23.433 28 21.5 28H14.5C12.566 28 11 26.433 11 24.5C11 22.567 12.566 21 14.5 21H21.5C23.433 21 25 22.567 25 24.5Z" fill="#1C1264"/>
</g>
<g clip-path="url(#clip1_98_233)">
<mask id="path-5-inside-3_98_233" fill="white">
<path d="M25.6347 28.2498C25.8672 27.3569 25.9963 26.4469 25.9963 25.5555C25.9963 22.3192 24.3459 20.283 21.9068 19.3061C22.2311 18.5221 22.424 17.6665 22.424 16.8172C22.424 15.5875 22.039 14.8743 21.4012 14.459C22.2498 14.0841 23.3589 13.2923 23.7556 12.8949C24.363 12.2874 24.4867 11.4256 24.0309 10.9699C23.5751 10.5141 22.7141 10.637 22.1059 11.2452C21.6307 11.7204 20.5908 13.213 20.3769 14.06C19.6893 13.9083 18.8758 13.8889 18 13.8889C17.125 13.8889 16.3107 13.9083 15.6239 14.0592C15.41 13.2122 14.3701 11.7204 13.8949 11.2444C13.2874 10.637 12.4257 10.5133 11.9699 10.9691C11.5149 11.4256 11.6378 12.2866 12.2452 12.8949C12.6427 13.2923 13.7518 14.0841 14.5996 14.459C13.961 14.8735 13.576 15.5875 13.576 16.8172C13.576 17.6673 13.7689 18.5221 14.0932 19.3061C11.6541 20.283 10.0037 22.3192 10.0037 25.5555C10.0037 26.4469 10.1336 27.3576 10.3653 28.2498V28.2676L10.37 28.2653C11.3103 31.8594 13.9812 35.1463 17.2238 35.6075L17.2222 35.6667C17.2222 36.9554 17.5707 38 18 38C18.4301 38 18.7778 36.9554 18.7778 35.6667C18.7778 35.6464 18.7762 35.6285 18.7754 35.6083C22.018 35.1471 24.6897 31.8602 25.63 28.2661L25.6347 28.2684V28.2498Z"/>
</mask>
<path d="M25.6347 28.2498C25.8672 27.3569 25.9963 26.4469 25.9963 25.5555C25.9963 22.3192 24.3459 20.283 21.9068 19.3061C22.2311 18.5221 22.424 17.6665 22.424 16.8172C22.424 15.5875 22.039 14.8743 21.4012 14.459C22.2498 14.0841 23.3589 13.2923 23.7556 12.8949C24.363 12.2874 24.4867 11.4256 24.0309 10.9699C23.5751 10.5141 22.7141 10.637 22.1059 11.2452C21.6307 11.7204 20.5908 13.213 20.3769 14.06C19.6893 13.9083 18.8758 13.8889 18 13.8889C17.125 13.8889 16.3107 13.9083 15.6239 14.0592C15.41 13.2122 14.3701 11.7204 13.8949 11.2444C13.2874 10.637 12.4257 10.5133 11.9699 10.9691C11.5149 11.4256 11.6378 12.2866 12.2452 12.8949C12.6427 13.2923 13.7518 14.0841 14.5996 14.459C13.961 14.8735 13.576 15.5875 13.576 16.8172C13.576 17.6673 13.7689 18.5221 14.0932 19.3061C11.6541 20.283 10.0037 22.3192 10.0037 25.5555C10.0037 26.4469 10.1336 27.3576 10.3653 28.2498V28.2676L10.37 28.2653C11.3103 31.8594 13.9812 35.1463 17.2238 35.6075L17.2222 35.6667C17.2222 36.9554 17.5707 38 18 38C18.4301 38 18.7778 36.9554 18.7778 35.6667C18.7778 35.6464 18.7762 35.6285 18.7754 35.6083C22.018 35.1471 24.6897 31.8602 25.63 28.2661L25.6347 28.2684V28.2498Z" fill="#0690C3" stroke="#1C1264" stroke-width="0.5" mask="url(#path-5-inside-3_98_233)"/>
<path d="M11.1912 27.8889C10.9105 28.0344 10.6351 28.1604 10.3652 28.2685C10.6141 29.2166 10.9867 30.1406 11.4549 31H24.5449C25.0131 30.1406 25.3865 29.2166 25.6346 28.2685C25.3647 28.1604 25.0893 28.0344 24.8078 27.8889H11.1912ZM13.9858 34.1111C15.1665 35.0709 16.5353 35.6667 17.9999 35.6667C19.4652 35.6667 20.8333 35.0709 22.0148 34.1111H13.9858Z" fill="#1D1160"/>
<g clip-path="url(#clip2_98_233)">
<mask id="path-7-inside-4_98_233" fill="white">
<path d="M18 28C19.6569 28 21 26.6569 21 25C21 23.3431 19.6569 22 18 22C16.3431 22 15 23.3431 15 25C15 26.6569 16.3431 28 18 28Z"/>
</mask>
<path d="M18 28C19.6569 28 21 26.6569 21 25C21 23.3431 19.6569 22 18 22C16.3431 22 15 23.3431 15 25C15 26.6569 16.3431 28 18 28Z" fill="#FCBA24" stroke="#1C1264" stroke-width="0.5" mask="url(#path-7-inside-4_98_233)"/>
<path d="M21 24.8333H19.5032C19.5345 23.9157 19.827 23.2842 20.3005 23.0757C20.2263 22.9872 20.1462 22.9045 20.0625 22.825C19.5908 23.088 19.205 23.7038 19.1702 24.8332H18.1667V22H17.8333V24.8333H16.8298C16.7952 23.704 16.4093 23.0882 15.9377 22.8252C15.854 22.9045 15.7737 22.9872 15.6997 23.0757C16.1732 23.2842 16.4655 23.9157 16.4968 24.8333H15V25.1667H16.4968C16.4655 26.0843 16.1732 26.7158 15.6997 26.9243C15.7738 27.0128 15.854 27.0955 15.9377 27.175C16.4095 26.912 16.7952 26.2962 16.8298 25.1667H17.8333V28H18.1667V25.1667H19.1702C19.205 26.296 19.5907 26.9118 20.0625 27.175C20.1462 27.0957 20.2265 27.0128 20.3005 26.9243C19.827 26.7158 19.5347 26.0843 19.5032 25.1667H21V24.8333Z" fill="#1D1160"/>
</g>
</g>
<defs>
<clipPath id="clip0_98_233">
<rect width="36" height="36" fill="white"/>
</clipPath>
<clipPath id="clip1_98_233">
<rect width="28" height="28" fill="white" transform="translate(4 10)"/>
</clipPath>
<clipPath id="clip2_98_233">
<rect width="6" height="6" fill="white" transform="translate(15 22)"/>
</clipPath>
</defs>
</svg>
