<svg width="40" height="40" viewBox="0 0 40 40" fill="none" xmlns="http://www.w3.org/2000/svg">
<path d="M24.6855 39.5723H24.6833C23.7899 39.4145 23.1944 38.5634 23.3522 37.67L24.0077 33.9545C24.0077 33.9545 24.7633 30.4378 22.8122 27.9C24.2111 26.5989 28.3944 27.9945 28.3944 27.9945L26.5877 38.24C26.4299 39.1334 25.5788 39.7289 24.6855 39.5723ZM10.5833 39.5489H10.5811C9.68772 39.3911 9.09216 38.54 9.24994 37.6467L10.7077 29.8411C10.7077 29.8411 11.2666 27.1534 11.2666 24.9089C12.5355 24.4211 14.2922 27.9723 14.2922 27.9723L12.4855 38.2178C12.3266 39.11 11.4755 39.7056 10.5833 39.5489ZM34.2244 28.6345C33.6277 28.6345 33.1388 28.1556 33.1299 27.5578C33.1166 26.7545 32.7922 22.7511 27.6577 22.7511C27.0522 22.7511 26.5633 22.2611 26.5633 21.6567C26.5633 21.0523 27.0533 20.5623 27.6577 20.5623C33.6166 20.5623 35.2777 24.9378 35.3199 27.5223C35.3299 28.1278 34.8477 28.6256 34.2433 28.6356L34.2244 28.6345Z" fill="#FFCC4D"/>
<path d="M16.9178 19.1689L13.0734 5.85778L14.9478 4.72444C15.3578 5.40222 15.6456 6.63778 16.119 8.76111C16.7512 11.6033 17.6178 15.4944 19.0712 17.5122C19.4245 18.0033 19.3134 18.6878 18.8223 19.0411C18.6278 19.1811 16.9178 19.1689 16.9178 19.1689ZM8.46118 3.01111V0.821111C8.46118 0.367778 8.82896 0 9.28229 0C9.73563 0 10.1034 0.367778 10.1034 0.821111V3.01111H8.46118ZM11.0523 3.01111V0.821111C11.0523 0.367778 11.4201 0 11.8734 0C12.3267 0 12.6945 0.367778 12.6945 0.821111V3.01111H11.0523Z" fill="#552583"/>
<path d="M34.2244 31.9189C35.4339 31.9189 36.4144 30.6932 36.4144 29.1811C36.4144 27.6691 35.4339 26.4434 34.2244 26.4434C33.0149 26.4434 32.0344 27.6691 32.0344 29.1811C32.0344 30.6932 33.0149 31.9189 34.2244 31.9189Z" fill="#552583"/>
<path d="M32.15 37.8822C32.15 37.8822 31.4311 35.0877 31.0411 33.2666C30.6722 31.5455 29.9022 28.8433 29.74 24.1277C29.7289 23.9666 29.6967 23.5589 29.5867 23.2622C29.4511 22.8955 28.9567 22.2255 28.7356 21.9255C27.8722 20.7566 26.5 20.0466 24.8178 19.8733C23.3922 19.7266 21.9589 19.6677 20.5356 19.4966C19.88 19.4177 19.3133 19.3233 18.9556 19.1944C17.1378 18.54 16.7756 16.4144 16.2733 14.7889C15.3844 11.9111 14.5978 8.9833 14.0944 6.01108L14.0644 5.82775V5.37775C15.8056 4.58441 17.1644 2.16886 16.2544 1.25997C14.6811 0.473303 13.1133 1.38219 12.3511 2.36219C12.3289 2.36108 12.3078 2.35553 12.2856 2.35553H9.39889C8.67112 2.35553 7.95 2.5333 7.31889 2.92219C6.67 3.32108 6.22334 3.92997 5.50445 4.24441C4.63112 4.62664 3.59223 4.34775 2.81889 4.95553C1.49778 5.99219 2.12445 7.76108 3.76778 7.81997C3.99112 8.46108 4.59556 8.9233 5.31223 8.9233H7.65223C7.71334 8.93553 7.77223 8.94664 7.84445 8.95553C8.51556 9.03441 9.05334 9.53886 9.48556 10.3055C10.6489 12.3677 10.8678 15.0211 11.0578 17.3322C11.19 18.9411 11.2544 20.5611 11.2333 22.1766C10.9078 23.9166 11.1 25.9289 11.1 25.9289C11.1489 26.3944 11.3067 26.7922 11.5378 27.1455L11.5267 27.1577C13.7378 30.28 14.2478 33.7911 14.2478 33.7911L15.1189 38.45C15.2767 39.3433 16.1278 39.94 17.0222 39.7822C17.9156 39.6244 18.5122 38.7733 18.3544 37.88L16.9522 29.9255C19.1489 30.5189 22.0733 30.9611 24.1178 30.8722C24.1178 30.8789 24.1144 30.8877 24.1156 30.8944C26.75 30.7322 27.7378 32.8166 27.9533 33.7566C28.1689 34.6966 28.9178 38.4544 28.9178 38.4544C29.0756 39.3477 29.9278 39.9444 30.82 39.7866C31.7111 39.6277 32.3078 38.7755 32.15 37.8822Z" fill="#FFCC4D"/>
<path d="M13.3055 24.5555C12.211 25.65 12.0166 27.2311 12.871 28.0867C13.7266 28.9422 15.3077 28.7478 16.4022 27.6522C17.4966 26.5567 17.691 24.9767 16.8366 24.1211C15.981 23.2655 14.3999 23.46 13.3055 24.5555ZM14.5144 17.6833C14.5144 19.4978 15.9855 20.9678 17.7988 20.9678C18.9422 20.9678 19.9466 20.3833 20.5344 19.4978C19.8788 19.4189 19.3122 19.3244 18.9544 19.1955C17.2166 18.57 16.8744 16.71 16.451 15.3722C16.3877 15.1733 16.331 14.9844 16.271 14.7911C15.2322 15.3422 14.5144 16.4233 14.5144 17.6833ZM13.4188 12.7567C13.4188 11.2444 12.1933 10.0189 10.681 10.0189C10.2499 10.0189 9.84771 10.1278 9.48438 10.3044C10.1899 11.5555 10.6122 13.51 10.8644 15.4744C12.2888 15.3789 13.4188 14.2055 13.4188 12.7567ZM12.2044 8.22443C12.2044 9.46666 13.211 10.4722 14.4522 10.4722C14.6544 10.4722 14.8466 10.4367 15.0333 10.3867C14.5344 8.4011 14.2455 6.91777 14.0922 6.01221C13.0244 6.18555 12.2044 7.10666 12.2044 8.22443ZM22.1788 22.0644C22.1788 23.8789 23.6499 25.3489 25.4633 25.3489C27.2777 25.3489 28.7477 23.8778 28.7477 22.0644C28.7477 22.0167 28.7355 21.9733 28.7333 21.9267C27.8699 20.7578 26.4977 20.0478 24.8155 19.8744C24.3077 19.8222 23.7355 19.7767 23.1499 19.7322C22.5522 20.3278 22.1788 21.1511 22.1788 22.0644ZM12.8866 2.90332C13.4477 2.36666 14.3499 1.69332 14.8622 1.95221C15.3744 2.2111 15.1488 3.36666 13.5666 4.34221C13.6922 3.85443 14.1788 2.99221 12.8866 2.90332Z" fill="#552583"/>
<path d="M10.5 5.5C11.0523 5.5 11.5 5.05228 11.5 4.5C11.5 3.94772 11.0523 3.5 10.5 3.5C9.94772 3.5 9.5 3.94772 9.5 4.5C9.5 5.05229 9.94772 5.5 10.5 5.5Z" fill="white" stroke="#552583"/>
<path d="M23.3855 37.2723C23.3855 37.2723 22.1166 38.7734 22.291 39.2512C22.4655 39.7289 25.3366 39.7967 25.901 39.2756C26.4655 38.7545 23.7333 37.2289 23.3855 37.2723ZM9.35994 37.2723C9.35994 37.2723 8.09105 38.7734 8.26549 39.2512C8.43883 39.7289 11.311 39.7967 11.8755 39.2756C12.4399 38.7545 9.70771 37.2289 9.35994 37.2723ZM14.4122 39.7389C14.5633 40.1734 17.4855 40.1045 17.9733 39.2267C18.461 38.3489 14.9977 37.7634 14.9977 37.7634C14.9977 37.7634 14.2166 39.1778 14.4122 39.7389ZM28.1944 39.7389C28.3455 40.1734 31.2677 40.1045 31.7555 39.2267C32.2433 38.3489 28.7799 37.7634 28.7799 37.7634C28.7799 37.7634 27.9988 39.1778 28.1944 39.7389Z" fill="#552583"/>
</svg>
