<svg width="36" height="36" viewBox="0 0 36 36" fill="none" xmlns="http://www.w3.org/2000/svg">
<g clip-path="url(#clip0_81_82)">
<path d="M34.8624 22.5298C34.2724 21.6448 32.4044 20.1648 30.3624 19.8738C28.2504 19.5718 26.4854 20.0538 23.7914 18.4798C23.7054 18.4138 23.6204 18.3488 23.5184 18.2898C21.3654 17.0428 17.6014 12.8728 17.5184 8.7478C17.4714 6.4118 14.5184 6.1228 12.1434 6.4148C9.76842 6.7068 2.06042 8.4978 2.35142 9.6648C2.59942 10.6558 2.57542 14.9808 2.33342 17.8698C1.96742 20.1398 1.69742 23.3048 1.69742 25.3098C1.69642 25.9728 2.72642 26.3738 2.72642 26.3738L16.9244 26.8738L34.6124 26.3968C34.6124 26.3968 35.5454 26.3128 35.5184 25.6858C35.4764 24.7278 35.3624 23.2798 34.8624 22.5298Z" fill="#C1694F"/>
<path d="M23.6014 26.8318C24.3514 25.4988 25.9764 24.4148 28.3514 24.2488C30.7264 24.0828 34.1434 21.7178 34.1434 21.7178C34.1434 21.7178 35.1124 21.7178 35.6744 23.7488C36.1374 25.4188 35.2684 25.8428 35.2684 25.8428C35.2684 25.8428 31.7264 27.8328 29.3934 27.4578C27.0604 27.0828 23.6014 26.8318 23.6014 26.8318ZM2.29943 18.5298C2.29943 18.5298 1.17443 22.1858 1.43943 24.1908C1.62043 25.5598 2.01243 26.5418 2.81543 26.7708C3.61843 26.9998 12.3154 26.8368 12.1434 26.7798C11.9714 26.7228 11.0464 22.6558 7.54943 21.6238C4.05243 20.5918 2.29943 18.5298 2.29943 18.5298Z" fill="#662113"/>
<path d="M2.29943 29.9358C1.74943 29.9358 1.26843 29.4978 1.14343 27.9978L1.11243 27.4358C1.26843 25.4358 1.75043 28.0608 2.30043 28.0608C2.85043 28.0608 3.30043 28.5108 3.30043 29.0608C3.29943 29.6108 2.84943 29.9358 2.29943 29.9358ZM5.33143 30.1858C4.78143 30.1858 4.33143 29.7358 4.33143 29.1858C4.33143 28.6358 4.78143 28.1858 5.33143 28.1858C5.88143 28.1858 6.33143 28.6358 6.33143 29.1858C6.33143 29.7358 5.88143 30.1858 5.33143 30.1858ZM8.39343 30.3738C7.84343 30.3738 7.39343 29.9238 7.39343 29.3738C7.39343 28.8238 7.84343 28.3738 8.39343 28.3738C8.94343 28.3738 9.39343 28.8238 9.39343 29.3738C9.39343 29.9238 8.94343 30.3738 8.39343 30.3738ZM11.4554 30.2178C10.9054 30.2178 10.4554 29.7678 10.4554 29.2178C10.4554 28.6678 10.9054 28.2178 11.4554 28.2178C12.0054 28.2178 12.4554 28.6678 12.4554 29.2178C12.4554 29.7678 12.0064 30.2178 11.4554 30.2178ZM20.3934 30.3738C19.8434 30.3738 19.3934 29.9238 19.3934 29.3738C19.3934 28.8238 19.8434 28.3738 20.3934 28.3738C20.9434 28.3738 21.3934 28.8238 21.3934 29.3738C21.3934 29.9238 20.9434 30.3738 20.3934 30.3738ZM23.3934 30.3738C22.8434 30.3738 22.3934 29.9238 22.3934 29.3738C22.3934 28.8238 22.8434 28.3738 23.3934 28.3738C23.9434 28.3738 24.3934 28.8238 24.3934 29.3738C24.3934 29.9238 23.9434 30.3738 23.3934 30.3738ZM26.3314 30.2488C25.7814 30.2488 25.3314 29.7988 25.3314 29.2488C25.3314 28.6988 25.7814 28.2488 26.3314 28.2488C26.8814 28.2488 27.3314 28.6988 27.3314 29.2488C27.3314 29.7988 26.8804 30.2488 26.3314 30.2488ZM29.3624 30.0618C28.8124 30.0618 28.3624 29.6118 28.3624 29.0618C28.3624 28.5118 28.8124 28.0618 29.3624 28.0618C29.9124 28.0618 30.3624 28.5118 30.3624 29.0618C30.3624 29.6108 29.9124 30.0618 29.3624 30.0618ZM32.3624 29.8738C31.8124 29.8738 31.3624 29.4238 31.3624 28.8738C31.3624 28.3238 31.8124 27.8738 32.3624 27.8738C32.9124 27.8738 33.3624 28.3238 33.3624 28.8738C33.3624 29.4238 32.9124 29.8738 32.3624 29.8738ZM35.3244 29.3928H35.0434C34.4934 29.3928 34.0434 28.7868 34.0434 28.2368C34.0434 27.6868 34.4934 27.2368 35.0434 27.2368C35.5934 27.2368 36.2624 26.5618 36.2624 27.1118L36.1994 28.1738C36.1994 28.7238 35.8744 29.3928 35.3244 29.3928Z" fill="#292F33"/>
<path d="M2.56044 10.4159C1.84744 10.7819 1.81044 9.16587 2.47744 8.41587C3.14444 7.66587 8.72744 6.66587 10.1024 6.41587C11.4774 6.16587 14.1444 5.66587 14.9774 6.33287C15.8104 6.99987 15.9774 9.16587 15.9354 9.95787C15.8934 10.7489 12.8514 9.54087 10.3934 9.29087C8.07044 9.05387 4.18544 9.58187 2.56044 10.4159Z" fill="#662113"/>
<path d="M14.9974 14.4568C15.8259 14.4568 16.4974 13.7852 16.4974 12.9568C16.4974 12.1284 15.8259 11.4568 14.9974 11.4568C14.169 11.4568 13.4974 12.1284 13.4974 12.9568C13.4974 13.7852 14.169 14.4568 14.9974 14.4568Z" fill="#292F33"/>
<path d="M16.3414 17.6548C17.1699 17.6548 17.8414 16.9832 17.8414 16.1548C17.8414 15.3264 17.1699 14.6548 16.3414 14.6548C15.513 14.6548 14.8414 15.3264 14.8414 16.1548C14.8414 16.9832 15.513 17.6548 16.3414 17.6548Z" fill="#292F33"/>
<path d="M18.6854 20.3318C19.5139 20.3318 20.1854 19.6602 20.1854 18.8318C20.1854 18.0034 19.5139 17.3318 18.6854 17.3318C17.857 17.3318 17.1854 18.0034 17.1854 18.8318C17.1854 19.6602 17.857 20.3318 18.6854 20.3318Z" fill="#292F33"/>
<path d="M21.9554 21.8118C22.7839 21.8118 23.4554 21.1402 23.4554 20.3118C23.4554 19.4833 22.7839 18.8118 21.9554 18.8118C21.127 18.8118 20.4554 19.4833 20.4554 20.3118C20.4554 21.1402 21.127 21.8118 21.9554 21.8118Z" fill="#292F33"/>
<path d="M25.3934 22.6968C26.2219 22.6968 26.8934 22.0252 26.8934 21.1968C26.8934 20.3684 26.2219 19.6968 25.3934 19.6968C24.565 19.6968 23.8934 20.3684 23.8934 21.1968C23.8934 22.0252 24.565 22.6968 25.3934 22.6968Z" fill="#292F33"/>
<path d="M14.8934 13.7989C14.5314 13.7989 14.2034 13.5519 14.1164 13.1849C14.0134 12.7549 14.2784 12.3239 14.7084 12.2209L18.5414 11.3039C18.9694 11.1989 19.4024 11.4659 19.5054 11.8959C19.6084 12.3259 19.3434 12.7569 18.9134 12.8599L15.0804 13.7769C15.0174 13.7919 14.9544 13.7989 14.8934 13.7989ZM16.3934 16.9859C16.1054 16.9859 15.8274 16.8309 15.6844 16.5569C15.4794 16.1649 15.6304 15.6819 16.0214 15.4769L19.5634 13.6229C19.9554 13.4199 20.4374 13.5689 20.6434 13.9609C20.8484 14.3529 20.6974 14.8359 20.3054 15.0409L16.7634 16.8949C16.6454 16.9569 16.5184 16.9859 16.3934 16.9859ZM18.6434 19.6739C18.4184 19.6739 18.1944 19.5789 18.0364 19.3959C17.7484 19.0609 17.7864 18.5559 18.1214 18.2679L21.0794 15.7259C21.4154 15.4379 21.9194 15.4769 22.2074 15.8109C22.4954 16.1459 22.4574 16.6509 22.1224 16.9389L19.1644 19.4809C19.0144 19.6099 18.8284 19.6739 18.6434 19.6739ZM21.9754 21.1739C21.8504 21.1739 21.7234 21.1449 21.6054 21.0829C21.2134 20.8779 21.0624 20.3949 21.2674 20.0029L22.6844 17.2949C22.8894 16.9039 23.3744 16.7539 23.7644 16.9569C24.1564 17.1619 24.3074 17.6449 24.1024 18.0369L22.6854 20.7449C22.5424 21.0179 22.2634 21.1739 21.9754 21.1739ZM25.4254 22.0799C25.3884 22.0799 25.3514 22.0779 25.3134 22.0719C24.8754 22.0099 24.5714 21.6059 24.6324 21.1689L25.0184 18.4299C25.0794 17.9919 25.4804 17.6799 25.9214 17.7489C26.3594 17.8109 26.6634 18.2149 26.6024 18.6519L26.2164 21.3909C26.1614 21.7919 25.8184 22.0799 25.4254 22.0799Z" fill="#BE1931"/>
<path d="M1.72743 25.5897C2.51443 25.7647 3.92843 26.2517 6.31843 26.2897C9.07343 26.3337 11.5054 25.7647 14.6264 25.7647C17.6174 25.7647 21.5264 26.6127 24.9454 26.4647C28.4324 26.3127 32.2954 25.8127 33.1374 25.6657C34.8044 25.3737 35.5754 25.1867 35.5754 25.1867C35.5754 25.1867 35.9404 25.1657 36.1064 25.8747C36.2734 26.5827 36.4104 27.9577 35.2654 28.3017C33.0794 28.9577 27.7114 29.4147 22.5414 29.3507C19.9154 29.3187 16.9924 28.5407 15.5754 28.3747C14.1584 28.2077 12.9084 28.0877 12.5134 28.3747C12.1174 28.6617 12.6024 29.1667 11.5674 29.3077C8.98743 29.6577 2.95343 29.3517 1.63943 28.7917C0.967432 28.5057 0.588432 25.3367 1.72743 25.5897ZM13.8294 14.9767C13.6104 14.9767 13.4084 14.8307 13.3474 14.6087L12.7374 12.3847C12.6644 12.1187 12.8214 11.8427 13.0874 11.7697C13.3514 11.6967 13.6284 11.8527 13.7024 12.1197L14.3124 14.3447C14.3854 14.6107 14.2284 14.8857 13.9624 14.9587C13.9174 14.9707 13.8724 14.9767 13.8294 14.9767ZM15.3344 18.2567C15.1334 18.2567 14.9444 18.1347 14.8674 17.9367L14.0404 15.7837C13.9414 15.5257 14.0704 15.2357 14.3284 15.1377C14.5854 15.0377 14.8754 15.1677 14.9744 15.4247L15.8014 17.5777C15.9004 17.8357 15.7714 18.1257 15.5134 18.2237C15.4544 18.2457 15.3934 18.2567 15.3344 18.2567ZM18.3264 21.1177C18.1994 21.1177 18.0724 21.0697 17.9744 20.9727L16.3354 19.3507C16.1394 19.1567 16.1374 18.8397 16.3314 18.6437C16.5254 18.4477 16.8424 18.4457 17.0384 18.6397L18.6774 20.2617C18.8734 20.4557 18.8754 20.7727 18.6814 20.9687C18.5834 21.0677 18.4554 21.1177 18.3264 21.1177ZM22.3244 22.6807C22.2474 22.6807 22.1694 22.6627 22.0964 22.6257L20.0434 21.5747C19.7974 21.4487 19.6994 21.1467 19.8254 20.9017C19.9524 20.6557 20.2564 20.5587 20.4984 20.6837L22.5514 21.7347C22.7974 21.8607 22.8954 22.1627 22.7694 22.4077C22.6804 22.5807 22.5054 22.6807 22.3244 22.6807ZM26.3174 23.4357C26.2854 23.4357 26.2524 23.4327 26.2194 23.4257L23.9564 22.9777C23.6854 22.9237 23.5094 22.6617 23.5624 22.3907C23.6164 22.1197 23.8824 21.9407 24.1494 21.9967L26.4124 22.4447C26.6834 22.4987 26.8594 22.7607 26.8064 23.0317C26.7594 23.2707 26.5504 23.4357 26.3174 23.4357Z" fill="#292F33"/>
</g>
<defs>
<clipPath id="clip0_81_82">
<rect width="36" height="36" fill="white"/>
</clipPath>
</defs>
</svg>
