<svg width="36" height="54" viewBox="0 0 36 54" fill="none" xmlns="http://www.w3.org/2000/svg">
<path d="M36 36.5C36 34.861 35.03 33.496 33.727 33.115C32.367 25.658 25.85 20 18 20C10.15 20 3.633 25.658 2.273 33.115C0.97 33.496 0 34.861 0 36.5C0 38.236 1.087 39.668 2.51 39.942C4.269 46.868 10.527 52 18 52C25.473 52 31.731 46.868 33.49 39.942C34.912 39.668 36 38.236 36 36.5Z" fill="#F9E0B6"/>
<path d="M18 43C15 43 14 42 14 44C14 46 16 48 18 48C20 48 22 46 22 44C22 42 21 43 18 43Z" fill="black"/>
<path d="M18 44H20V45C20 45 20 46 19 46C18 46 18 45 18 45V44Z" fill="white"/>
<path d="M15.6602 33.5C15.6602 34.6931 12.9005 37.4722 9.49707 37.4722C6.09323 37.4722 3.33398 35.0343 3.33398 33.5C3.33398 32.3032 15.6602 32.3032 15.6602 33.5Z" fill="#E1E8ED"/>
<path d="M15.6602 33.5001H3.33398C3.33398 32.3037 6.0936 29.5278 9.49707 29.5278C12.9005 29.5278 15.6602 32.3033 15.6602 33.5001Z" fill="#292F33"/>
<path d="M15.2118 33.5C15.2118 34.5487 12.6526 36.9909 9.49681 36.9909C6.3407 36.9909 3.78223 34.8477 3.78223 33.5C3.78223 32.4485 6.3407 30.0095 9.49681 30.0095C12.6526 30.0092 15.2118 32.4485 15.2118 33.5Z" fill="#F5F8FA"/>
<path d="M9.50008 36.5542C11.1869 36.5542 12.5544 35.1868 12.5544 33.5C12.5544 31.8131 11.1869 30.4457 9.50008 30.4457C7.81325 30.4457 6.4458 31.8131 6.4458 33.5C6.4458 35.1868 7.81325 36.5542 9.50008 36.5542Z" fill="#0696D7"/>
<path d="M9.49992 35.2001C10.4389 35.2001 11.2 34.439 11.2 33.5C11.2 32.5611 10.4389 31.7999 9.49992 31.7999C8.56097 31.7999 7.7998 32.5611 7.7998 33.5C7.7998 34.439 8.56097 35.2001 9.49992 35.2001Z" fill="#292F33"/>
<path d="M8.41045 33.1389C8.80933 33.1389 9.13268 32.8156 9.13268 32.4167C9.13268 32.0178 8.80933 31.6945 8.41045 31.6945C8.01158 31.6945 7.68823 32.0178 7.68823 32.4167C7.68823 32.8156 8.01158 33.1389 8.41045 33.1389Z" fill="#F5F8FA"/>
<path d="M32.6602 33.5C32.6602 34.6931 29.9005 37.4722 26.4971 37.4722C23.0932 37.4722 20.334 35.0343 20.334 33.5C20.334 32.3032 32.6602 32.3032 32.6602 33.5Z" fill="#E1E8ED"/>
<path d="M32.6602 33.5001H20.334C20.334 32.3037 23.0936 29.5278 26.4971 29.5278C29.9005 29.5278 32.6602 32.3033 32.6602 33.5001Z" fill="#292F33"/>
<path d="M32.2118 33.5C32.2118 34.5487 29.6526 36.9909 26.4968 36.9909C23.3407 36.9909 20.7822 34.8477 20.7822 33.5C20.7822 32.4485 23.3407 30.0095 26.4968 30.0095C29.6526 30.0092 32.2118 32.4485 32.2118 33.5Z" fill="#F5F8FA"/>
<path d="M26.5001 36.5542C28.1869 36.5542 29.5544 35.1868 29.5544 33.5C29.5544 31.8131 28.1869 30.4457 26.5001 30.4457C24.8132 30.4457 23.4458 31.8131 23.4458 33.5C23.4458 35.1868 24.8132 36.5542 26.5001 36.5542Z" fill="#0696D7"/>
<path d="M26.4999 35.2001C27.4389 35.2001 28.2 34.439 28.2 33.5C28.2 32.5611 27.4389 31.7999 26.4999 31.7999C25.561 31.7999 24.7998 32.5611 24.7998 33.5C24.7998 34.439 25.561 35.2001 26.4999 35.2001Z" fill="#292F33"/>
<path d="M25.4105 33.1389C25.8093 33.1389 26.1327 32.8156 26.1327 32.4167C26.1327 32.0178 25.8093 31.6945 25.4105 31.6945C25.0116 31.6945 24.6882 32.0178 24.6882 32.4167C24.6882 32.8156 25.0116 33.1389 25.4105 33.1389Z" fill="#F5F8FA"/>
<g clip-path="url(#clip0_99_284)">
<path d="M20.7719 13.4405L17.6981 6.50658L14.6565 12.4681L20.7719 13.4405Z" fill="#F4900C"/>
<path d="M24.0538 6.11673L19.1468 13.7585L26.348 14.9035L24.0538 6.11673Z" fill="#F4900C"/>
<path d="M24.9702 14.108L30.043 8.46943L31.0856 15.0803L24.9702 14.108Z" fill="#F4900C"/>
<path d="M28.9235 13.4552L27.5297 5.30244L23.0735 12.5257L23.0694 12.5271L23.066 12.5239L21.0699 4.27464L17.2161 11.5937C15.9559 8.4315 14.6497 6.3265 14.6497 6.3265C14.6497 6.3265 14.2537 14.9024 12.9623 23.0245L29.4222 25.6417C30.7136 17.5195 32.997 9.24373 32.997 9.24373C32.997 9.24373 31.1023 10.8398 28.9235 13.4552Z" fill="#FFCC4D"/>
<path d="M21.9395 19.4812C23.057 19.6589 24.137 18.7081 24.3517 17.3577C24.5665 16.0072 23.8346 14.7683 22.7171 14.5907C21.5995 14.413 20.5195 15.3637 20.3048 16.7142C20.0901 18.0647 20.8219 19.3035 21.9395 19.4812Z" fill="#5C913B"/>
<path d="M26.7408 19.3773C27.4717 19.4935 28.1781 18.8717 28.3185 17.9885C28.4589 17.1052 27.9803 16.295 27.2494 16.1788C26.5185 16.0626 25.8122 16.6844 25.6717 17.5676C25.5313 18.4509 26.01 19.2611 26.7408 19.3773Z" fill="#981CEB"/>
<path d="M30.2913 19.6522C30.8931 19.7478 31.4747 19.2359 31.5903 18.5086C31.7059 17.7814 31.3118 17.1143 30.71 17.0186C30.1082 16.9229 29.5266 17.4349 29.411 18.1621C29.2954 18.8894 29.6895 19.5565 30.2913 19.6522Z" fill="#DD2E44"/>
<path d="M17.4064 17.893C18.1372 18.0092 18.8436 17.3874 18.984 16.5042C19.1245 15.621 18.6458 14.8108 17.9149 14.6945C17.184 14.5783 16.4777 15.2001 16.3373 16.0834C16.1968 16.9666 16.6755 17.7768 17.4064 17.893Z" fill="#981CEB"/>
<path d="M13.9461 17.0533C14.5478 17.149 15.1294 16.637 15.2451 15.9098C15.3607 15.1825 14.9666 14.5154 14.3648 14.4197C13.763 14.324 13.1814 14.836 13.0658 15.5632C12.9501 16.2905 13.3443 16.9576 13.9461 17.0533Z" fill="#DD2E44"/>
<path d="M29.3167 26.3047L12.8568 23.6875C12.5539 23.6394 12.3552 23.3039 12.4135 22.9373C12.4718 22.5706 12.7648 22.3133 13.0676 22.3615L29.5275 24.9786C29.8309 25.0268 30.0291 25.3622 29.9708 25.7289C29.9125 26.0955 29.6201 26.3529 29.3167 26.3047ZM29.6842 23.9933L13.2243 21.3762C12.9214 21.328 12.7228 20.9926 12.7811 20.6259C12.8394 20.2593 13.1323 20.002 13.4351 20.0501L29.895 22.6673C30.1985 22.7155 30.3966 23.0509 30.3383 23.4175C30.28 23.7842 29.9876 24.0416 29.6842 23.9933Z" fill="#FFAC33"/>
<path d="M14.593 7.27392C15.0193 7.34171 15.4314 6.97899 15.5133 6.46377C15.5952 5.94856 15.316 5.47593 14.8896 5.40814C14.4633 5.34035 14.0513 5.70307 13.9693 6.21829C13.8874 6.73351 14.1666 7.20613 14.593 7.27392Z" fill="#FFCC4D"/>
<path d="M17.5724 7.29696C17.9336 7.35439 18.2826 7.04711 18.352 6.61062C18.4214 6.17412 18.1849 5.77372 17.8237 5.71629C17.4625 5.65886 17.1134 5.96615 17.044 6.40264C16.9746 6.83913 17.2112 7.23953 17.5724 7.29696Z" fill="#F4900C"/>
<path d="M20.8817 5.4581C21.4223 5.54406 21.9447 5.08415 22.0486 4.43088C22.1525 3.77761 21.7985 3.17835 21.2579 3.0924C20.7173 3.00645 20.1948 3.46635 20.091 4.11962C19.9871 4.77289 20.3411 5.37215 20.8817 5.4581Z" fill="#FFCC4D"/>
<path d="M32.757 10.162C33.1834 10.2298 33.5954 9.86706 33.6773 9.35184C33.7593 8.83662 33.4801 8.364 33.0537 8.29621C32.6274 8.22842 32.2153 8.59113 32.1334 9.10635C32.0515 9.62157 32.3307 10.0942 32.757 10.162Z" fill="#FFCC4D"/>
<path d="M29.9173 9.25985C30.2785 9.31728 30.6276 9.01 30.697 8.57351C30.7664 8.13702 30.5299 7.73661 30.1687 7.67918C29.8075 7.62175 29.4584 7.92904 29.389 8.36553C29.3196 8.80202 29.5561 9.20242 29.9173 9.25985Z" fill="#F4900C"/>
<path d="M27.3417 6.4852C27.8823 6.57115 28.4047 6.11125 28.5086 5.45798C28.6124 4.80471 28.2584 4.20545 27.7178 4.1195C27.1772 4.03355 26.6548 4.49345 26.5509 5.14672C26.4471 5.79999 26.8011 6.39925 27.3417 6.4852Z" fill="#FFCC4D"/>
<path d="M23.8656 7.29965C24.4062 7.38561 24.9286 6.92571 25.0325 6.27244C25.1364 5.61917 24.7823 5.01991 24.2418 4.93395C23.7012 4.848 23.1787 5.3079 23.0749 5.96117C22.971 6.61444 23.325 7.2137 23.8656 7.29965Z" fill="#F4900C"/>
</g>
<defs>
<clipPath id="clip0_99_284">
<rect width="20" height="24.169" fill="white" transform="translate(14.7952 0.88269) rotate(9.03445)"/>
</clipPath>
</defs>
</svg>
