<svg width="46" height="45" viewBox="0 0 46 45" fill="none" xmlns="http://www.w3.org/2000/svg">
<g clip-path="url(#clip0_89_174)">
<path d="M28 45C37.9411 45 46 36.9411 46 27C46 17.0589 37.9411 9 28 9C18.0589 9 10 17.0589 10 27C10 36.9411 18.0589 45 28 45Z" fill="#0B77BD"/>
<path d="M46 26H37.019C37.207 20.494 38.962 16.705 41.803 15.454C41.358 14.923 40.877 14.427 40.375 13.95C37.545 15.528 35.23 19.223 35.021 25.999H29V9H27V26H20.979C20.771 19.224 18.456 15.529 15.626 13.951C15.124 14.427 14.642 14.923 14.198 15.454C17.039 16.705 18.793 20.494 18.981 26H10V28H18.981C18.793 33.506 17.039 37.295 14.198 38.546C14.643 39.077 15.124 39.573 15.626 40.05C18.457 38.472 20.771 34.777 20.979 28H27V45H29V28H35.021C35.23 34.776 37.544 38.471 40.375 40.05C40.877 39.574 41.359 39.077 41.803 38.546C38.962 37.295 37.208 33.506 37.019 28H46V26Z" fill="#231F20"/>
</g>
<path d="M15.7639 6.58487L12.5469 5.34962L11.3456 1.2655C11.2993 1.108 11.1587 1 11 1C10.8413 1 10.7007 1.108 10.6544 1.2655L9.45347 5.34962L6.23606 6.58487C6.09399 6.63962 6 6.7795 6 6.93662C6 7.09337 6.09399 7.234 6.23606 7.28837L9.45167 8.52325L10.6533 12.7319C10.6989 12.8909 10.8399 13 11 13C11.1598 13 11.3011 12.8909 11.3467 12.7315L12.5483 8.52288L15.7643 7.288C15.9056 7.234 16 7.09375 16 6.93662C16 6.77987 15.9056 6.63962 15.7639 6.58487Z" fill="#C2CCD3"/>
<path d="M7.62686 14.0839L6.30457 13.6122L5.79029 11.7935C5.72286 11.5532 5.49714 11.3868 5.23943 11.3868C4.98171 11.3868 4.756 11.5532 4.688 11.793L4.17371 13.6116L2.852 14.0833C2.62743 14.1632 2.47886 14.3699 2.47886 14.6003C2.47886 14.8306 2.62743 15.0373 2.852 15.1172L4.16686 15.5873L4.68514 17.5834C4.74914 17.8281 4.97714 18 5.23943 18C5.50171 18 5.72971 17.8281 5.79371 17.5828L6.312 15.5867L7.62686 15.1167C7.85143 15.0373 8 14.8306 8 14.6003C8 14.3699 7.85143 14.1632 7.62686 14.0839ZM5.148 2.14543L3.79714 1.66322L3.29657 0.359868C3.21371 0.143286 3 0 2.76057 0C2.52171 0 2.308 0.143286 2.22457 0.359868L1.72457 1.66322L0.373143 2.14543C0.148571 2.22589 0 2.432 0 2.66236C0 2.89272 0.148571 3.09938 0.373143 3.17929L1.72457 3.6615L2.22457 4.96485C2.308 5.18143 2.52171 5.32472 2.76057 5.32472C2.99943 5.32472 3.21314 5.18143 3.29657 4.96485L3.79657 3.6615L5.148 3.17929C5.37257 3.09883 5.52114 2.89272 5.52114 2.66236C5.52114 2.432 5.37257 2.22589 5.148 2.14543Z" fill="#C2CCD3"/>
<defs>
<clipPath id="clip0_89_174">
<rect width="36" height="36" fill="white" transform="translate(10 9)"/>
</clipPath>
</defs>
</svg>
