<svg width="41" height="44" viewBox="0 0 41 44" fill="none" xmlns="http://www.w3.org/2000/svg">
<g clip-path="url(#clip0_89_175)">
<path d="M27.2232 31.6284C27.2232 31.6284 28.7117 33.218 30.184 41.3963C30.3389 42.2548 30.4017 43.122 30.4191 44H41V16.2411C36.2474 12.8645 29.7344 12.1684 21.8488 14.5319C21.8488 14.5319 15.9901 11.6152 15.1896 10.8968C14.4106 10.1968 13.1778 9.38398 13.8516 11.237C14.246 12.3182 14.6793 13.5441 16.4061 15.964C12.6838 17.9434 11.5171 20.514 7.13498 28.9344C3.78965 35.3666 2.08665 37.4559 3.01506 39.9137C4.23923 43.158 8.77406 45.3533 12.5961 42.8508C14.675 41.4897 15.0292 39.0465 19.3398 36.8007C23.2972 36.7375 27.2232 35.2412 27.2232 31.6284Z" fill="#FEFEFE"/>
<path d="M41 14.8451C31.9704 9.2927 17.5502 10.4321 19.2348 15.0181C29.6359 13.2078 36.4175 16.5163 41 21.987V14.8451Z" fill="#BCC2C8"/>
<path d="M23.3015 14.6029C20.1837 14.8294 15.5481 16.1536 13.2308 18.4597C13.2308 18.4597 13.0911 13.4556 17.094 13.0016C23.7803 12.2443 23.3871 13.3545 23.3871 13.3545L23.3015 14.6029Z" fill="#292F33"/>
<path d="M19.7201 10.0266C20.3246 11.1496 24.06 11.7669 25.1975 15.8882C26.336 20.0104 21.8023 18.7572 20.4785 16.7194C19.004 14.4503 18.4981 12.673 18.4559 11.1982C18.4331 10.4194 18.4981 7.75845 19.7201 10.0266Z" fill="#C1694F"/>
<path d="M19.9789 11.7591C21.1739 12.7002 22.6309 14.1625 22.8498 15.6043C23.0686 17.0461 21.631 16.5648 20.9691 15.2426C20.3061 13.9213 20.1534 12.5408 19.7406 12.0994C19.3289 11.658 19.9789 11.7591 19.9789 11.7591Z" fill="#662113"/>
<path d="M20.3517 24.0937C20.3517 24.7616 19.7483 25.3032 19.0029 25.3032C18.2587 25.3032 17.6553 24.7616 17.6553 24.0937C17.6553 23.4248 18.2587 22.8833 19.0029 22.8833C19.7483 22.8843 20.3517 23.4258 20.3517 24.0937Z" fill="#292F33"/>
<path d="M6.57379 38.086C6.57379 38.9425 5.99745 39.6357 5.28787 39.6357C4.57829 39.6357 4.00195 38.9425 4.00195 38.086C4.00195 37.2285 4.57829 36.5343 5.28787 36.5343C5.99745 36.5343 6.57379 37.2285 6.57379 38.086Z" fill="#051922"/>
<path d="M13.2169 18.6483C13.1811 18.6318 13.1356 18.6347 13.0966 18.625C11.425 20.6015 9.93327 23.5853 7.1491 28.9344C5.6801 31.7568 4.52744 33.7431 3.77344 35.2908C5.5371 35.5106 7.33219 33.8889 8.04719 32.1107C8.77627 30.2965 11.5301 26.6157 13.3848 24.5487C15.2394 22.4808 15.0759 19.5476 13.2169 18.6483Z" fill="#051922"/>
</g>
<path d="M32.7431 6.63166C31.8726 8.47096 30.0198 9.40717 28.1927 9.94259C27.5601 8.26785 25.0294 2.08029 22.334 2.57802C19.9709 3.01437 19.3463 4.40058 18.1357 4.62411C16.9252 4.84764 15.8467 3.77594 13.4836 4.21229C10.7882 4.71001 10.6342 11.3933 10.6414 13.1835C8.74352 13.3359 6.67835 13.122 5.20861 11.716C2.54934 9.17146 0.149038 11.8512 2.16196 14.811C5.34165 19.4856 11.4213 22.066 21.0289 20.2919C30.6355 18.518 35.3926 13.9365 36.6942 8.43448C37.5173 4.95098 34.3183 3.30517 32.7431 6.63166Z" fill="#0063AF"/>
<path d="M21.7666 5.01254C19.9287 5.35193 19.4664 6.56022 18.5253 6.73399C17.5842 6.90777 16.7209 5.94426 14.883 6.28364C12.4609 6.73089 12.8452 14.5227 12.8452 14.5227C12.8452 14.5227 14.5739 16.8245 20.1968 15.7862C25.8208 14.7477 26.6124 11.9805 26.6124 11.9805C26.6124 11.9805 24.1887 4.5653 21.7666 5.01254Z" fill="#0063AF"/>
<path d="M12.0652 10.2985C12.0652 10.2985 14.5207 12.1748 19.3648 11.2803C24.2099 10.3856 25.8324 7.75627 25.8324 7.75627L26.2484 10.0092C26.2484 10.0092 24.4794 12.6656 19.7808 13.5332C15.0823 14.4008 12.4812 12.5514 12.4812 12.5514L12.0652 10.2985Z" fill="#0063AF"/>
<defs>
<clipPath id="clip0_89_175">
<rect width="39" height="35" fill="white" transform="translate(2 9)"/>
</clipPath>
</defs>
</svg>
