<svg width="36" height="36" viewBox="0 0 36 36" fill="none" xmlns="http://www.w3.org/2000/svg">
<path d="M17.9999 28.694C23.906 28.694 28.6939 23.9062 28.6939 18C28.6939 12.0939 23.906 7.30603 17.9999 7.30603C12.0938 7.30603 7.30591 12.0939 7.30591 18C7.30591 23.9062 12.0938 28.694 17.9999 28.694Z" fill="#C2CFD4"/>
<path d="M10.2291 22.751C9.24407 22.818 8.54007 22.443 8.02607 21.834C8.24007 22.391 8.51307 22.915 8.81407 23.422C9.58507 23.711 10.4051 23.832 11.3541 23.15C10.8911 22.923 10.4741 22.735 10.2291 22.751ZM23.0861 8.60803C23.1311 8.93603 22.8991 9.10803 22.3361 8.97103C21.3811 8.73903 20.5431 9.74703 20.0621 10.59C19.1151 12.247 15.2081 14.114 15.2051 12.677C15.2041 11.998 11.7531 13.52 11.3121 12.838C10.8951 12.194 9.64907 12.442 9.39107 11.67C8.25607 13.214 7.52207 15.072 7.35107 17.092C7.72807 17.81 8.21507 18.374 8.70307 18.618C9.36307 18.948 12.4291 20.146 12.8771 19.381C13.6241 18.105 18.1061 19.008 17.9991 18.337C17.7941 17.052 20.4261 18.107 21.3721 16.451C21.8541 15.608 22.9051 14.961 23.8611 15.193C24.9771 15.464 26.3541 13.55 26.2501 11.197C25.3791 10.14 24.2991 9.26603 23.0861 8.60803ZM26.2671 24.783C25.9291 24.949 25.5961 25.076 25.2921 25.109C23.0441 25.352 22.5581 27.114 21.0501 26.812C20.2731 26.656 19.2131 28.026 18.0001 28.109C17.3891 28.151 16.5111 28.25 15.6141 28.417C16.3821 28.592 17.1791 28.694 18.0001 28.694C21.3311 28.694 24.3051 27.171 26.2671 24.783Z" fill="#C2CFD4"/>
<path d="M23.225 8.67399C24.178 9.20899 25.036 9.88699 25.779 10.677C28.27 10.52 29.789 11.106 29.662 12.454C29.596 13.159 29.077 13.996 28.231 14.889C26.123 17.11 21.922 19.685 17.161 21.491C13.852 22.746 10.903 23.391 8.795 23.425C6.65 23.46 5.377 22.862 5.493 21.622C5.569 20.807 6.245 19.816 7.345 18.765C7.326 18.51 7.306 18.258 7.306 18C7.306 17.152 7.415 16.331 7.602 15.539C3.3 18.522 0.5 21.807 0.5 24.369C0.5 27.856 5.662 28.927 12.775 27.326C14.425 26.955 16.18 26.44 18 25.777C21.9 24.358 25.489 22.477 28.399 20.46C32.7 17.477 35.5 14.192 35.5 11.63C35.5 8.14399 30.338 7.07199 23.225 8.67399Z" fill="#00275E"/>
<path d="M6.35589 18.051C5.61389 18.762 4.98689 19.575 4.47589 20.433C3.98589 21.285 3.56889 22.244 3.63189 23.104C3.66689 23.96 4.31389 24.47 5.18989 24.706C6.06389 24.933 7.03489 24.993 8.02389 24.935C9.98589 24.846 11.9539 24.52 13.8649 23.97C15.7889 23.465 17.6559 22.745 19.4799 21.934C23.1279 20.306 26.5479 18.145 29.6119 15.552C29.9799 15.219 30.3829 14.903 30.7359 14.566C31.0689 14.229 31.3829 13.853 31.6459 13.469C32.1679 12.701 32.4719 11.802 31.9809 11.117C31.4909 10.421 30.4859 10.042 29.5279 9.84604C28.5469 9.65904 27.5179 9.61604 26.4979 9.73504C27.4899 9.47004 28.5349 9.34004 29.5859 9.41904C30.6159 9.51104 31.7579 9.71904 32.5939 10.64C33.0039 11.097 33.1929 11.785 33.1179 12.386C33.0609 12.997 32.8249 13.536 32.5549 14.021C32.2769 14.506 31.9649 14.946 31.6099 15.369C31.2579 15.773 30.9009 16.146 30.5379 16.532C27.6059 19.526 24.0979 21.946 20.2769 23.691C16.4609 25.411 12.3029 26.602 8.01589 26.445C6.95989 26.405 5.85889 26.312 4.77989 25.897C4.24589 25.688 3.69789 25.38 3.27989 24.881C2.85089 24.391 2.64489 23.71 2.69089 23.107C2.78889 21.894 3.39489 20.955 4.03989 20.131C4.70389 19.312 5.48689 18.606 6.35589 18.051Z" fill="#BB2233"/>
</svg>
