<svg width="57" height="42" viewBox="0 0 57 42" fill="none" xmlns="http://www.w3.org/2000/svg">
<path d="M21.2475 40.7832C19.7644 42.2663 17.4035 42.3363 16.0056 40.9371C14.6064 39.5379 14.6763 37.1784 16.1595 35.6953L45.7515 6.10302C47.236 4.61863 49.5955 4.54867 50.9935 5.94911C52.394 7.34827 52.324 9.70777 50.8396 11.1909L21.2475 40.7832Z" fill="#FFC627"/>
<path d="M53.5849 7.59961C54.3659 6.81861 54.3659 5.55161 53.5849 4.77061L52.1709 3.35661C51.3909 2.57661 50.1239 2.57661 49.3429 3.35661C48.5619 4.13761 48.5619 5.40461 49.3429 6.18561L50.7569 7.59961C51.5379 8.38061 52.8049 8.38061 53.5849 7.59961Z" fill="#FFC627"/>
<path d="M34 0.942597C35.857 0.199597 45 -2.0574 52 4.9426C59 11.9426 56.743 21.0856 56 22.9426C54 27.9426 54.329 21.8796 54 19.9426C52.985 13.9716 50.178 10.7646 48.178 8.7646C46.178 6.7646 42.949 3.9716 37 2.9426C35.079 2.6106 29 2.9426 34 0.942597Z" fill="#FFC627"/>
<path d="M35.6951 40.7832C37.1783 42.2663 39.5391 42.3363 40.9371 40.9371C42.3363 39.5379 42.2663 37.1784 40.7832 35.6953L11.1911 6.10302C9.70666 4.61863 7.34708 4.54867 5.94914 5.94911C4.54866 7.34827 4.61862 9.70777 6.10306 11.1909L35.6951 40.7832Z" fill="#FFC627"/>
<path d="M3.35772 7.59961C2.57672 6.81861 2.57672 5.55161 3.35772 4.77061L4.77172 3.35661C5.55172 2.57661 6.81872 2.57661 7.59972 3.35661C8.38072 4.13761 8.38072 5.40461 7.59972 6.18561L6.18572 7.59961C5.40472 8.38061 4.13772 8.38061 3.35772 7.59961Z" fill="#FFC627"/>
<path d="M22.9426 0.942597C21.0856 0.199597 11.9426 -2.0574 4.9426 4.9426C-2.0574 11.9426 0.199597 21.0856 0.942597 22.9426C2.9426 27.9426 2.6136 21.8796 2.9426 19.9426C3.9576 13.9716 6.7646 10.7646 8.7646 8.7646C10.7646 6.7646 13.9936 3.9716 19.9426 2.9426C21.8636 2.6106 27.9426 2.9426 22.9426 0.942597Z" fill="#FFC627"/>
</svg>
