<svg width="36" height="36" viewBox="0 0 36 36" fill="none" xmlns="http://www.w3.org/2000/svg">
<g clip-path="url(#clip0_78_39)">
<path d="M30.0173 16H33.0173L35.0173 10H32.0173L30.0173 16Z" fill="#080F51"/>
<path d="M29.0173 12C29.0173 12 26.0173 8 25.0173 8H16.0173L10.0173 13L3.93634 14.77C3.31634 14.987 2.48634 15.406 2.37634 16L0.0173446 26C-0.107655 26.646 0.465345 27 1.01734 27H35.0173C35.5703 27 36.0173 26.553 36.0173 26V14C36.0173 12 29.0173 12 29.0173 12Z" fill="#F8E007"/>
<path d="M16.1113 13L11.0173 27H23.0173L28.0173 13H16.1113Z" fill="#080F51"/>
<path d="M8.01733 28C10.2265 28 12.0173 26.2091 12.0173 24C12.0173 21.7909 10.2265 20 8.01733 20C5.80819 20 4.01733 21.7909 4.01733 24C4.01733 26.2091 5.80819 28 8.01733 28Z" fill="#292F33"/>
<path d="M8.01733 26C9.1219 26 10.0173 25.1046 10.0173 24C10.0173 22.8954 9.1219 22 8.01733 22C6.91276 22 6.01733 22.8954 6.01733 24C6.01733 25.1046 6.91276 26 8.01733 26Z" fill="white"/>
<path d="M29.0173 28C31.2265 28 33.0173 26.2091 33.0173 24C33.0173 21.7909 31.2265 20 29.0173 20C26.8082 20 25.0173 21.7909 25.0173 24C25.0173 26.2091 26.8082 28 29.0173 28Z" fill="#292F33"/>
<path d="M29.0173 26C30.1219 26 31.0173 25.1046 31.0173 24C31.0173 22.8954 30.1219 22 29.0173 22C27.9128 22 27.0173 22.8954 27.0173 24C27.0173 25.1046 27.9128 26 29.0173 26Z" fill="white"/>
<path d="M19.5173 23C21.4503 23 23.0173 21.433 23.0173 19.5C23.0173 17.567 21.4503 16 19.5173 16C17.5843 16 16.0173 17.567 16.0173 19.5C16.0173 21.433 17.5843 23 19.5173 23Z" fill="#080F51"/>
<path d="M30.0173 11L31.0173 10L36.0173 9V11H30.0173Z" fill="#F8E007"/>
<path d="M17.0173 9H25.0173V13H12.0173L17.0173 9Z" fill="#558855" fill-opacity="0.6"/>
<path d="M6.01733 17C6.01733 17.553 5.56933 18 5.01733 18H3.01733C2.46533 18 2.01733 17.553 2.01733 17C2.01733 16.447 2.46533 16 3.01733 16H5.01733C5.56933 16 6.01733 16.447 6.01733 17Z" fill="#558855"/>
<path d="M36.0173 15H35.0173C34.4643 15 34.0173 15.447 34.0173 16V17C34.0173 17.553 34.4643 18 35.0173 18H36.0173V15Z" fill="#558855"/>
<path d="M17.528 21.08C17.1493 21.08 16.8453 21.04 16.616 20.96C16.3867 20.88 16.2213 20.776 16.12 20.648C16.024 20.52 15.976 20.384 15.976 20.24C15.976 20.0533 16.0347 19.9093 16.152 19.808C16.2747 19.7013 16.4187 19.648 16.584 19.648C16.584 19.808 16.616 19.9653 16.68 20.12C16.7493 20.2693 16.856 20.3947 17 20.496C17.1493 20.592 17.344 20.64 17.584 20.64C17.824 20.64 18.0427 20.5893 18.24 20.488C18.4373 20.3867 18.5947 20.2373 18.712 20.04C18.8293 19.8373 18.888 19.5867 18.888 19.288C18.888 18.9573 18.7893 18.7013 18.592 18.52C18.3947 18.3387 18.1173 18.248 17.76 18.248H17.416L17.496 17.84H17.752C18.0507 17.84 18.3173 17.7787 18.552 17.656C18.7867 17.528 18.9707 17.352 19.104 17.128C19.2427 16.8987 19.312 16.6347 19.312 16.336C19.312 16.1227 19.256 15.9493 19.144 15.816C19.0373 15.6773 18.8667 15.608 18.632 15.608C18.392 15.608 18.1947 15.664 18.04 15.776C17.8907 15.888 17.7733 16.0347 17.688 16.216C17.608 16.392 17.544 16.5867 17.496 16.8C17.3307 16.8 17.1893 16.7653 17.072 16.696C16.96 16.6213 16.904 16.4853 16.904 16.288C16.904 16.0693 16.9813 15.88 17.136 15.72C17.296 15.5547 17.5093 15.4293 17.776 15.344C18.0427 15.2533 18.3387 15.208 18.664 15.208C19.1067 15.208 19.4613 15.3093 19.728 15.512C20 15.7093 20.136 15.9893 20.136 16.352C20.136 16.5973 20.0747 16.8347 19.952 17.064C19.8347 17.288 19.656 17.4827 19.416 17.648C19.1813 17.8133 18.8853 17.928 18.528 17.992C18.896 18.0293 19.1867 18.1547 19.4 18.368C19.6187 18.576 19.728 18.8533 19.728 19.2C19.728 19.552 19.6613 19.8507 19.528 20.096C19.3947 20.336 19.2187 20.528 19 20.672C18.7813 20.816 18.544 20.92 18.288 20.984C18.032 21.048 17.7787 21.08 17.528 21.08ZM20.7728 21L20.8368 20.664H21.2608C21.4421 20.664 21.6048 20.632 21.7488 20.568C21.8928 20.4987 21.9914 20.3387 22.0448 20.088L22.6688 17.144C22.7114 16.936 22.7568 16.728 22.8048 16.52C22.8581 16.3067 22.9114 16.096 22.9648 15.888H22.9328C22.6661 16.1493 22.4394 16.3547 22.2528 16.504C22.0714 16.648 21.8954 16.72 21.7248 16.72C21.6128 16.72 21.5301 16.68 21.4768 16.6C21.4288 16.5147 21.4048 16.4107 21.4048 16.288C21.5914 16.24 21.7808 16.176 21.9728 16.096C22.1648 16.0107 22.4128 15.8693 22.7168 15.672L23.3648 15.256H23.8768L22.8448 20.12C22.8234 20.2053 22.8128 20.28 22.8128 20.344C22.8128 20.4773 22.8661 20.5653 22.9728 20.608C23.0848 20.6453 23.2234 20.664 23.3888 20.664H23.8208L23.7488 21H20.7728Z" fill="#F8E007"/>
</g>
<defs>
<clipPath id="clip0_78_39">
<rect width="36" height="36" fill="white"/>
</clipPath>
</defs>
</svg>
