<svg width="36" height="36" viewBox="0 0 36 36" fill="none" xmlns="http://www.w3.org/2000/svg">
<g clip-path="url(#clip0_87_62)">
<path d="M12.7171 23.275C12.7171 23.275 11.3431 24.91 9.98411 33.322C9.84111 34.205 9.78311 35.097 9.76711 36H0.000110626V7.44798C4.38711 3.97498 10.3991 3.25898 17.6781 5.68998C17.6781 5.68998 23.0861 2.68998 23.8251 1.95098C24.5441 1.23098 25.6821 0.394975 25.0601 2.30098C24.6961 3.41298 24.2961 4.67398 22.7021 7.16298C26.1381 9.19898 27.2151 11.843 31.2601 20.504C34.3481 27.12 35.9201 29.269 35.0631 31.797C33.9331 35.134 29.7471 37.392 26.2191 34.818C24.3001 33.418 23.9731 30.905 19.9941 28.595C16.3411 28.53 12.7171 26.991 12.7171 23.275Z" fill="black"/>
<path d="M7.43866e-05 6.01197C8.33507 0.300968 21.6461 1.47297 20.0911 6.18997C10.4901 4.32797 4.23007 7.73097 7.43866e-05 13.358V6.01197Z" fill="#FF9F00"/>
<path d="M16.337 5.76298C19.215 5.99598 23.494 7.35798 25.633 9.72998C25.633 9.72998 25.762 4.58298 22.067 4.11598C15.895 3.33698 16.258 4.47898 16.258 4.47898L16.337 5.76298Z" fill="#292F33"/>
<path d="M19.643 1.05602C19.085 2.21102 15.637 2.84602 14.587 7.08502C13.536 11.325 17.721 10.036 18.943 7.94002C20.304 5.60602 20.771 3.77802 20.81 2.26102C20.831 1.46002 20.771 -1.27698 19.643 1.05602Z" fill="black"/>
<path d="M19.4039 2.83803C18.3009 3.80603 16.9559 5.31003 16.7539 6.79303C16.5519 8.27603 17.8789 7.78103 18.4899 6.42103C19.1019 5.06203 19.2429 3.64203 19.6239 3.18803C20.0039 2.73403 19.4039 2.83803 19.4039 2.83803Z" fill="#8C9093"/>
<path d="M19.0601 15.525C19.0601 16.212 19.6171 16.769 20.3051 16.769C20.9921 16.769 21.5491 16.212 21.5491 15.525C21.5491 14.837 20.9921 14.28 20.3051 14.28C19.6171 14.281 19.0601 14.838 19.0601 15.525Z" fill="#FF9F00"/>
<path d="M31.7781 29.917C31.7781 30.798 32.3101 31.511 32.9651 31.511C33.6201 31.511 34.1521 30.798 34.1521 29.917C34.1521 29.035 33.6201 28.321 32.9651 28.321C32.3101 28.321 31.7781 29.035 31.7781 29.917Z" fill="#8C9093"/>
<path d="M25.646 9.92402C25.679 9.90702 25.721 9.91002 25.757 9.90002C27.3 11.933 28.677 15.002 31.247 20.504C32.603 23.407 33.667 25.45 34.363 27.042C32.735 27.268 31.078 25.6 30.418 23.771C29.745 21.905 27.203 18.119 25.491 15.993C23.779 13.866 23.93 10.849 25.646 9.92402Z" fill="#8C9093"/>
</g>
<defs>
<clipPath id="clip0_87_62">
<rect width="36" height="36" fill="white" transform="matrix(-1 0 0 1 36 0)"/>
</clipPath>
</defs>
</svg>
