<svg width="36" height="36" viewBox="0 0 36 36" fill="none" xmlns="http://www.w3.org/2000/svg">
<g clip-path="url(#clip0_78_39)">
<path d="M30.0173 16H33.0173L35.0173 10H32.0173L30.0173 16Z" fill="#414042"/>
<path d="M29.0173 12C29.0173 12 26.0173 8 25.0173 8H16.0173L10.0173 13L3.93634 14.77C3.31634 14.987 2.48634 15.406 2.37634 16L0.0173446 26C-0.107655 26.646 0.465345 27 1.01734 27H35.0173C35.5703 27 36.0173 26.553 36.0173 26V14C36.0173 12 29.0173 12 29.0173 12Z" fill="#F4900C"/>
<path d="M16.1113 13L11.0173 27H23.0173L28.0173 13H16.1113Z" fill="#3B88C3"/>
<path d="M8.01733 28C10.2265 28 12.0173 26.2091 12.0173 24C12.0173 21.7909 10.2265 20 8.01733 20C5.80819 20 4.01733 21.7909 4.01733 24C4.01733 26.2091 5.80819 28 8.01733 28Z" fill="#292F33"/>
<path d="M8.01733 26C9.1219 26 10.0173 25.1046 10.0173 24C10.0173 22.8954 9.1219 22 8.01733 22C6.91276 22 6.01733 22.8954 6.01733 24C6.01733 25.1046 6.91276 26 8.01733 26Z" fill="#58595B"/>
<path d="M29.0173 28C31.2265 28 33.0173 26.2091 33.0173 24C33.0173 21.7909 31.2265 20 29.0173 20C26.8082 20 25.0173 21.7909 25.0173 24C25.0173 26.2091 26.8082 28 29.0173 28Z" fill="#292F33"/>
<path d="M29.0173 26C30.1219 26 31.0173 25.1046 31.0173 24C31.0173 22.8954 30.1219 22 29.0173 22C27.9128 22 27.0173 22.8954 27.0173 24C27.0173 25.1046 27.9128 26 29.0173 26Z" fill="#58595B"/>
<path d="M19.5173 23C21.4503 23 23.0173 21.433 23.0173 19.5C23.0173 17.567 21.4503 16 19.5173 16C17.5843 16 16.0173 17.567 16.0173 19.5C16.0173 21.433 17.5843 23 19.5173 23Z" fill="white"/>
<path d="M21.0723 18.242C21.0723 18.683 20.8823 19.068 20.4983 19.314C21.0023 19.544 21.3523 20.013 21.3523 20.568C21.3523 21.408 20.5833 22.115 19.5883 22.115C18.5513 22.115 17.9063 21.351 17.9063 20.799C17.9063 20.526 18.1933 20.33 18.4453 20.33C18.9223 20.33 18.8093 21.148 19.6013 21.148C19.9643 21.148 20.2593 20.869 20.2593 20.498C20.2593 19.518 19.0683 20.238 19.0683 19.412C19.0683 18.678 20.0633 19.174 20.0633 18.396C20.0633 18.13 19.8753 17.927 19.5583 17.927C18.8933 17.927 18.9843 18.613 18.5083 18.613C18.2203 18.613 18.0523 18.355 18.0523 18.095C18.0523 17.548 18.8023 16.96 19.5793 16.96C20.5883 16.961 21.0723 17.697 21.0723 18.242Z" fill="#231F20"/>
<path d="M30.0173 11L31.0173 10L36.0173 9V11H30.0173Z" fill="#F4900C"/>
<path d="M17.0173 9H25.0173V13H12.0173L17.0173 9Z" fill="#88C9F9"/>
<path d="M6.01733 17C6.01733 17.553 5.56933 18 5.01733 18H3.01733C2.46533 18 2.01733 17.553 2.01733 17C2.01733 16.447 2.46533 16 3.01733 16H5.01733C5.56933 16 6.01733 16.447 6.01733 17Z" fill="#FFCC4D"/>
<path d="M36.0173 15H35.0173C34.4643 15 34.0173 15.447 34.0173 16V17C34.0173 17.553 34.4643 18 35.0173 18H36.0173V15Z" fill="#DD2E44"/>
</g>
<defs>
<clipPath id="clip0_78_39">
<rect width="36" height="36" fill="white"/>
</clipPath>
</defs>
</svg>
