<svg width="36" height="53" viewBox="0 0 36 53" fill="none" xmlns="http://www.w3.org/2000/svg">
<g clip-path="url(#clip0_105_355)">
<path d="M15.6003 22.9807C20.9024 25.0683 26.893 22.4624 28.9806 17.1603C31.0682 11.8581 28.4623 5.86756 23.1602 3.77995C17.858 1.69234 11.8675 4.29823 9.77986 9.60037C7.69225 14.9025 10.2981 20.8931 15.6003 22.9807Z" fill="#C9143F"/>
<path d="M29.1906 16.6269L24.4006 14.7409C25.6571 11.8438 27.3888 10.1914 29.1668 10.1208C29.0409 9.74415 28.8885 9.3786 28.721 9.01877C26.8802 9.26611 24.8695 10.7507 23.3351 14.3208L20.1238 13.0564L23.6935 3.98995L22.6268 3.56995L19.0569 12.637L15.8456 11.3726C17.1576 7.71489 16.6988 5.25801 15.5208 3.82208C15.1531 3.97054 14.7918 4.13386 14.4435 4.32384C15.6961 5.58766 15.8359 7.97688 14.7799 10.953L9.98986 9.06702L9.56987 10.1337L14.3599 12.0197C13.1034 14.9169 11.3722 16.5694 9.59425 16.64C9.72009 17.0167 9.87247 17.3823 10.04 17.7421C11.8813 17.495 13.8915 16.0101 15.4256 12.4393L18.6369 13.7037L15.0669 22.7707L16.1336 23.1907L19.7036 14.1237L22.9149 15.3881C21.6034 19.046 22.0617 21.5026 23.24 22.9393C23.6077 22.7909 23.9692 22.627 24.3175 22.437C23.0649 21.1732 22.9251 18.784 23.9806 15.8076L28.7706 17.6936L29.1906 16.6269Z" fill="white"/>
</g>
<path d="M3 43H11V53H3V43ZM25 43H33V53H25V43Z" fill="#0542AC"/>
<path d="M33 45.72C33 45.72 30 47.72 25 46.72V41.72H33V45.72ZM3 45.72C3 45.72 6 47.72 11 46.72V41.72H3V45.72Z" fill="#0542AC"/>
<path d="M3.98291 35.604H11.9829V43.604H3.98291V35.604ZM24.0059 35.104H32.0059V43.104H24.0059V35.104Z" fill="#0542AC"/>
<path d="M0.373056 28.835C0.373056 28.835 0.376056 27.61 1.60006 27.613C2.82606 27.617 2.82206 28.842 2.82206 28.842L2.80306 34.526C2.99806 34.436 3.20206 34.355 3.41606 34.285L3.44106 26.396C3.44106 26.396 3.44506 25.171 4.66806 25.175C5.89206 25.178 5.88906 26.404 5.88906 26.404L5.86806 33.824C6.06706 33.806 6.27206 33.792 6.47806 33.782L6.50606 25.18C6.50606 25.18 6.50906 23.955 7.73406 23.96C8.95906 23.964 8.95406 25.189 8.95406 25.189L8.92606 33.789C9.13606 33.801 9.33806 33.822 9.54006 33.841L9.56506 25.802C9.56506 25.802 9.56906 24.577 10.7921 24.582C12.0161 24.585 12.0111 25.809 12.0111 25.809L11.9871 34.31L11.9841 34.991V35.602C8.31006 35.593 5.85106 38.644 5.84006 41.706C5.84006 42.318 6.45206 42.322 6.45206 42.322C6.46206 38.644 8.91906 36.207 12.5941 36.218L14.3951 32.03C14.3951 32.03 14.7901 30.871 15.9511 31.268C17.1091 31.66 16.7161 32.821 16.7161 32.821L15.8231 35.926C15.4691 37.16 15.1381 38.402 14.9641 39.67C14.4661 43.254 11.3831 46.01 7.66506 46C3.61006 45.983 0.330056 42.685 0.343056 38.63C0.344056 38.416 0.357056 38.212 0.377056 38.02L0.345056 38.016L0.373056 28.835ZM35.6171 28.835C35.6171 28.835 35.6141 27.61 34.3901 27.613C33.1641 27.617 33.1671 28.842 33.1671 28.842L33.1861 34.526C32.9921 34.436 32.7871 34.355 32.5741 34.285L32.5491 26.396C32.5491 26.396 32.5451 25.171 31.3221 25.175C30.0971 25.178 30.1001 26.404 30.1001 26.404L30.1221 33.824C29.9241 33.806 29.7191 33.792 29.5121 33.782L29.4851 25.18C29.4851 25.18 29.4811 23.955 28.2561 23.96C27.0311 23.964 27.0361 25.189 27.0361 25.189L27.0641 33.789C26.8541 33.801 26.6521 33.822 26.4501 33.841L26.4251 25.802C26.4251 25.802 26.4201 24.577 25.1971 24.582C23.9731 24.585 23.9781 25.809 23.9781 25.809L24.0021 34.31L24.0051 34.991V35.602C27.6791 35.593 30.1381 38.644 30.1501 41.706C30.1501 42.318 29.5381 42.322 29.5381 42.322C29.5271 38.644 27.0701 36.207 23.3961 36.218L21.5951 32.03C21.5951 32.03 21.2011 30.871 20.0391 31.268C18.8821 31.66 19.2741 32.821 19.2741 32.821L20.1671 35.926C20.5211 37.16 20.8521 38.402 21.0261 39.67C21.5241 43.254 24.6061 46.01 28.3251 46C32.3801 45.983 35.6611 42.685 35.6471 38.63C35.6461 38.416 35.6331 38.212 35.6131 38.02L35.6451 38.016L35.6171 28.835Z" fill="#0542AC"/>
<defs>
<clipPath id="clip0_105_355">
<rect width="20.6354" height="20.6354" fill="white" transform="translate(13.5598) rotate(21.491)"/>
</clipPath>
</defs>
</svg>
