<svg width="21" height="36" viewBox="0 0 21 36" fill="none" xmlns="http://www.w3.org/2000/svg">
<path d="M12.6001 35H8.40015L9.10015 32.8124L9.45015 29.7499V23.8889L8.05015 20.1249L3.81836 15.5555H17.182L12.9501 20.1249L11.5501 23.8889V29.7499L11.9001 32.8124L12.6001 35Z" fill="#017344" stroke="#017344"/>
<path d="M2.09985 14C2.09985 13.0335 2.88336 12.25 3.84985 12.25H17.1499C18.1164 12.25 18.8999 13.0335 18.8999 14V14C18.8999 14.9665 18.1164 15.75 17.1499 15.75H3.84985C2.88336 15.75 2.09985 14.9665 2.09985 14V14Z" fill="#017344"/>
<rect y="10.5" width="21" height="3.5" rx="1.75" fill="#017344"/>
<ellipse cx="10.5001" cy="10.6945" rx="8.59091" ry="2.91667" fill="#017344"/>
<path d="M10.4998 0L11.4544 6.80556L12.9797 8.75H8.01978L9.54528 6.80556L10.4998 0Z" fill="#017344"/>
<path d="M8.59985 16.25V18.0429L6.80696 16.25H8.59985Z" fill="#F1C906" stroke="#F1C906"/>
<path d="M12.4001 16.25V18.0429L14.193 16.25H12.4001Z" fill="#F1C906" stroke="#F1C906"/>
</svg>
