<svg width="36" height="36" viewBox="0 0 36 36" fill="none" xmlns="http://www.w3.org/2000/svg">
<g clip-path="url(#clip0_88_133)">
<path d="M30.198 27.385L32 3.81604C32 3.68104 31.992 3.55304 31.979 3.44304C31.982 3.41004 32 3.36804 32 3.33304C32 1.52904 25.731 0.06604 18 0.06604C10.268 0.06604 4 1.52804 4 3.33304C4 3.36804 4.017 3.40104 4.022 3.43504C4.008 3.54504 4 3.66504 4 3.80004L5.802 27.385C2.298 28.295 0 29.576 0 31C0 33.762 8.611 36 18 36C27.389 36 36 33.762 36 31C36 29.576 33.702 28.295 30.198 27.385Z" fill="#FF7800"/>
<path d="M17.5359 6.59494C12.6459 6.59494 8.93394 5.69894 6.68394 4.94894C6.15994 4.77394 5.87594 4.20794 6.05094 3.68394C6.22594 3.15994 6.78994 2.87594 7.31594 3.05094C10.2049 4.01394 18.0779 5.94194 28.7369 3.03494C29.2659 2.89294 29.8189 3.20294 29.9639 3.73694C30.1099 4.26994 29.7949 4.81994 29.2619 4.96494C24.8559 6.16694 20.9149 6.59494 17.5359 6.59494Z" fill="#FFB36F" fill-opacity="0.35"/>
<path d="M30.1979 27.385L30.6439 21.556C22.9389 23.713 13.0589 23.763 5.32788 21.179L5.72088 26.321C5.78988 26.625 5.83388 26.971 5.83388 27.397C5.83388 29.147 7.12288 30.225 8.60488 30.793C13.0629 32.501 22.5629 32.439 27.4119 30.942C28.8789 30.489 30.1879 29.209 30.1879 27.751C30.1879 27.632 30.2029 27.51 30.2119 27.39L30.1979 27.385Z" fill="#084086"/>
</g>
<defs>
<clipPath id="clip0_88_133">
<rect width="36" height="36" fill="white"/>
</clipPath>
</defs>
</svg>
