<svg width="36" height="36" viewBox="0 0 36 36" fill="none" xmlns="http://www.w3.org/2000/svg">
<g clip-path="url(#clip0_97_196)">
<path d="M36 32C36 34.209 34.209 36 32 36H4C1.791 36 0 34.209 0 32V4C0 1.791 1.791 0 4 0H32C34.209 0 36 1.791 36 4V32Z" fill="#0044B1"/>
<path d="M32 23.958C33.575 24.921 34.957 25.634 36 26.129V24.059C32.465 22.229 25.013 17.594 20 9C20 9 20 7 18 7C16 7 16 9 16 9C10.987 17.594 3.535 22.229 0 24.059V26.129C1.043 25.634 2.425 24.921 4 23.958V27H0V31H16V36H20V31H36V27H32V23.958ZM30 27H26V19.565C27.362 20.751 28.716 21.779 30 22.66V27ZM6 22.659C7.284 21.779 8.637 20.751 10 19.565V27H6V22.659ZM12 27V17.708C13.384 16.333 14.74 14.785 16 13.053V27H12ZM20 13.054C21.26 14.785 22.616 16.334 24 17.709V27H20V13.054Z" fill="#FFC911"/>
<path d="M6.5 7C5.119 7 4 5.881 4 4.5C4 3.37 4.755 2.426 5.784 2.117C5.533 2.048 5.273 2 5 2C3.343 2 2 3.343 2 5C2 6.657 3.343 8 5 8C5.959 8 6.803 7.542 7.353 6.841C7.085 6.938 6.801 7 6.5 7Z" fill="white"/>
<path d="M10.5 3C10.7761 3 11 2.77614 11 2.5C11 2.22386 10.7761 2 10.5 2C10.2239 2 10 2.22386 10 2.5C10 2.77614 10.2239 3 10.5 3Z" fill="white"/>
<path d="M26.5 12C26.7761 12 27 11.7761 27 11.5C27 11.2239 26.7761 11 26.5 11C26.2239 11 26 11.2239 26 11.5C26 11.7761 26.2239 12 26.5 12Z" fill="white"/>
<path d="M7.5 12C7.77614 12 8 11.7761 8 11.5C8 11.2239 7.77614 11 7.5 11C7.22386 11 7 11.2239 7 11.5C7 11.7761 7.22386 12 7.5 12Z" fill="white"/>
<path d="M22 6C22.5523 6 23 5.55228 23 5C23 4.44772 22.5523 4 22 4C21.4477 4 21 4.44772 21 5C21 5.55228 21.4477 6 22 6Z" fill="white"/>
<path d="M4 18C4.55228 18 5 17.5523 5 17C5 16.4477 4.55228 16 4 16C3.44772 16 3 16.4477 3 17C3 17.5523 3.44772 18 4 18Z" fill="white"/>
<path d="M12 8C12.5523 8 13 7.55228 13 7C13 6.44772 12.5523 6 12 6C11.4477 6 11 6.44772 11 7C11 7.55228 11.4477 8 12 8Z" fill="white"/>
<path d="M32 18C32.5523 18 33 17.5523 33 17C33 16.4477 32.5523 16 32 16C31.4477 16 31 16.4477 31 17C31 17.5523 31.4477 18 32 18Z" fill="white"/>
<path d="M26.5 6C26.7761 6 27 5.77614 27 5.5C27 5.22386 26.7761 5 26.5 5C26.2239 5 26 5.22386 26 5.5C26 5.77614 26.2239 6 26.5 6Z" fill="white"/>
<path d="M31 4C31.5523 4 32 3.55228 32 3C32 2.44772 31.5523 2 31 2C30.4477 2 30 2.44772 30 3C30 3.55228 30.4477 4 31 4Z" fill="white"/>
<path d="M31.5 8C31.7761 8 32 7.77614 32 7.5C32 7.22386 31.7761 7 31.5 7C31.2239 7 31 7.22386 31 7.5C31 7.77614 31.2239 8 31.5 8Z" fill="white"/>
</g>
<defs>
<clipPath id="clip0_97_196">
<rect width="36" height="36" fill="white"/>
</clipPath>
</defs>
</svg>
