<svg width="36" height="36" viewBox="0 0 36 36" fill="none" xmlns="http://www.w3.org/2000/svg">
<g clip-path="url(#clip0_87_98)">
<path d="M10.3779 3.072C12.7209 5.415 12.0139 8.507 9.67092 10.85C7.32792 13.193 4.23592 13.9 1.89292 11.557C-0.450081 9.214 -0.536081 4.087 1.18592 2.365C2.90792 0.642996 8.03492 0.728996 10.3779 3.072Z" fill="#CCD6DD"/>
<path d="M8.69495 4.46696C10.2569 6.02896 9.54995 7.85496 7.98795 9.41696C6.42595 10.979 4.59995 11.686 3.03795 10.124C1.47595 8.56196 1.62395 4.46696 2.33195 3.75996C3.03995 3.05296 7.13395 2.90496 8.69495 4.46696Z" fill="#66757F"/>
<path d="M25.6221 3.072C23.2791 5.415 23.9861 8.507 26.3291 10.85C28.6721 13.193 31.7641 13.9 34.1071 11.557C36.4501 9.214 36.5361 4.087 34.8141 2.365C33.0921 0.642996 27.9651 0.728996 25.6221 3.072Z" fill="#CCD6DD"/>
<path d="M27.3051 4.46696C25.7431 6.02896 26.45 7.85496 28.012 9.41696C29.574 10.979 31.4001 11.686 32.9621 10.124C34.5241 8.56196 34.376 4.46696 33.669 3.75996C32.961 3.05296 28.8661 2.90496 27.3051 4.46696Z" fill="#66757F"/>
<path d="M34.0169 15C34.0169 15 35.0169 2 18.0169 2C0.838892 2 2.01689 14 2.01689 14C2.01689 27 13.0169 33 18.0169 33C23.0169 33 34.0169 28 34.0169 15Z" fill="#E1E8ED"/>
<path d="M18 34C20.2091 34 22 32.2091 22 30C22 27.7909 20.2091 26 18 26C15.7909 26 14 27.7909 14 30C14 32.2091 15.7909 34 18 34Z" fill="#DD2E44"/>
<path d="M18 15C13 15 11 24.687 11 28C11 31.313 13 35 18 35C23 35 25 31.313 25 28C25 24.687 23 15 18 15Z" fill="#CCD6DD"/>
<path d="M14.579 24.298C12.726 25.438 15.719 30 18 30C20.281 30 23.275 25.438 21.421 24.298C19.568 23.157 16.432 23.157 14.579 24.298Z" fill="#272B2B"/>
<path d="M16 32C16 32 16.095 34 18.095 34C20.095 34 20.19 32 20.19 32C20.19 32 18.095 32.158 18.095 30C18.095 31 16 32 16 32Z" fill="#DD2E44"/>
<path d="M16 32.4999C14.307 32.4999 13.596 31.3009 13.567 31.2499C13.429 31.0109 13.511 30.7049 13.75 30.5659C13.99 30.4279 14.294 30.5099 14.433 30.7499C14.449 30.7759 14.902 31.4999 16 31.4999C17.312 31.4999 17.487 30.1109 17.502 29.9529C17.529 29.6799 17.779 29.4899 18.046 29.5029C18.32 29.5289 18.522 29.7709 18.498 30.0439C18.422 30.8939 17.803 32.4999 16 32.4999Z" fill="#292F33"/>
<path d="M19.9999 32.5C18.1969 32.5 17.5779 30.894 17.5019 30.044C17.4779 29.77 17.6809 29.526 17.9559 29.502C18.2369 29.491 18.4749 29.681 18.4979 29.956C18.5129 30.111 18.6879 31.5 19.9999 31.5C21.0979 31.5 21.5509 30.776 21.5689 30.745C21.7119 30.512 22.0169 30.432 22.2529 30.572C22.4889 30.712 22.5699 31.012 22.4329 31.25C22.4029 31.301 21.6919 32.5 19.9999 32.5Z" fill="#292F33"/>
<path d="M25.5 19C24.675 19 24 18.325 24 17.5V16.5C24 15.675 24.675 15 25.5 15C26.325 15 27 15.675 27 16.5V17.5C27 18.325 26.325 19 25.5 19ZM10.5 19C9.675 19 9 18.325 9 17.5V16.5C9 15.675 9.675 15 10.5 15C11.325 15 12 15.675 12 16.5V17.5C12 18.325 11.325 19 10.5 19Z" fill="#272B2B"/>
<path fill-rule="evenodd" clip-rule="evenodd" d="M1.24004 14.018C1.48004 14.257 2.67804 14.975 2.91704 15.693C3.15704 16.41 3.63704 21 5.07504 22.197C6.55804 23.429 12.152 22.97 13.223 22.437C15.62 21.242 15.914 17.382 16.338 15.692C16.577 14.735 18.015 14.735 18.015 14.735C18.015 14.735 19.453 14.735 19.693 15.691C20.117 17.382 20.413 21.253 22.808 22.446C23.88 22.981 29.474 23.44 30.959 22.208C32.395 21.011 32.874 16.409 33.114 15.691C33.352 14.974 34.552 14.256 34.791 14.017C35.032 13.778 35.032 12.821 34.791 12.581C34.312 12.103 28.657 11.677 22.568 12.342C21.353 12.475 20.891 12.82 18.014 12.82C15.139 12.82 14.675 12.474 13.461 12.342C7.37604 11.678 1.72004 12.104 1.24004 12.582C1.00104 12.821 1.00104 13.779 1.24004 14.018Z" fill="#31373D"/>
</g>
<defs>
<clipPath id="clip0_87_98">
<rect width="36" height="36" fill="white"/>
</clipPath>
</defs>
</svg>
